<?xml version="1.0" encoding="UTF-8" standalone="no"?>
<!-- Created with Inkscape (http://www.inkscape.org/) -->

<svg
   xmlns:dc="http://purl.org/dc/elements/1.1/"
   xmlns:cc="http://creativecommons.org/ns#"
   xmlns:rdf="http://www.w3.org/1999/02/22-rdf-syntax-ns#"
   xmlns:svg="http://www.w3.org/2000/svg"
   xmlns="http://www.w3.org/2000/svg"
   xmlns:sodipodi="http://sodipodi.sourceforge.net/DTD/sodipodi-0.dtd"
   xmlns:inkscape="http://www.inkscape.org/namespaces/inkscape"
   width="619.5"
   height="142.5"
   id="svg3373"
   version="1.1"
   inkscape:version="0.48.5 r10040"
   sodipodi:docname="interferometerAB.svg">
  <defs
     id="defs3375">
    <marker
       inkscape:stockid="Arrow2Mend"
       orient="auto"
       refY="0"
       refX="0"
       id="Arrow2Mend"
       style="overflow:visible">
      <path
         id="path4786"
         style="fill-rule:evenodd;stroke-width:0.625;stroke-linejoin:round"
         d="M 8.7185878,4.0337352 -2.2072895,0.01601326 8.7185884,-4.0017078 c -1.7454984,2.3720609 -1.7354408,5.6174519 -6e-7,8.035443 z"
         transform="scale(-0.6,-0.6)"
         inkscape:connector-curvature="0" />
    </marker>
    <marker
       style="overflow:visible"
       id="Arrow2Lend-1"
       refX="0"
       refY="0"
       orient="auto"
       inkscape:stockid="Arrow2Lend">
      <path
         inkscape:connector-curvature="0"
         transform="matrix(-1.1,0,0,-1.1,-1.1,0)"
         d="M 8.7185878,4.0337352 -2.2072895,0.01601326 8.7185884,-4.0017078 c -1.7454984,2.3720609 -1.7354408,5.6174519 -6e-7,8.035443 z"
         style="fill-rule:evenodd;stroke-width:0.625;stroke-linejoin:round"
         id="path3862-5" />
    </marker>
    <marker
       style="overflow:visible"
       id="Arrow2Lend"
       refX="0"
       refY="0"
       orient="auto"
       inkscape:stockid="Arrow2Lend">
      <path
         inkscape:connector-curvature="0"
         transform="matrix(-1.1,0,0,-1.1,-1.1,0)"
         d="M 8.7185878,4.0337352 -2.2072895,0.01601326 8.7185884,-4.0017078 c -1.7454984,2.3720609 -1.7354408,5.6174519 -6e-7,8.035443 z"
         style="fill-rule:evenodd;stroke-width:0.625;stroke-linejoin:round"
         id="path3862" />
    </marker>
    <marker
       inkscape:isstock="true"
       style="overflow:visible"
       id="Arrow2Lend-7"
       refX="0"
       refY="0"
       orient="auto"
       inkscape:stockid="Arrow2Lend">
      <path
         transform="matrix(-1.1,0,0,-1.1,-1.1,0)"
         d="M 8.7185878,4.0337352 -2.2072895,0.01601326 8.7185884,-4.0017078 c -1.7454984,2.3720609 -1.7354408,5.6174519 -6e-7,8.035443 z"
         style="fill:#000000;fill-opacity:1;fill-rule:evenodd;stroke:#000000;stroke-width:0.625;stroke-linejoin:round;stroke-opacity:1"
         id="path4425"
         inkscape:connector-curvature="0" />
    </marker>
    <marker
       inkscape:isstock="true"
       style="overflow:visible"
       id="Tail"
       refX="0"
       refY="0"
       orient="auto"
       inkscape:stockid="Tail">
      <g
         style="fill:#000000;fill-opacity:1;stroke:#000000;stroke-opacity:1"
         transform="scale(-1.2,-1.2)"
         id="g4440">
        <path
           style="fill:#000000;fill-opacity:1;fill-rule:evenodd;stroke:#000000;stroke-width:0.80000001;stroke-linecap:round;stroke-opacity:1"
           d="M -3.8048674,-3.9585227 0.54352094,0"
           id="path4442"
           inkscape:connector-curvature="0" />
        <path
           style="fill:#000000;fill-opacity:1;fill-rule:evenodd;stroke:#000000;stroke-width:0.80000001;stroke-linecap:round;stroke-opacity:1"
           d="M -1.2866832,-3.9585227 3.0617053,0"
           id="path4444"
           inkscape:connector-curvature="0" />
        <path
           style="fill:#000000;fill-opacity:1;fill-rule:evenodd;stroke:#000000;stroke-width:0.80000001;stroke-linecap:round;stroke-opacity:1"
           d="M 1.3053582,-3.9585227 5.6537466,0"
           id="path4446"
           inkscape:connector-curvature="0" />
        <path
           style="fill:#000000;fill-opacity:1;fill-rule:evenodd;stroke:#000000;stroke-width:0.80000001;stroke-linecap:round;stroke-opacity:1"
           d="M -3.8048674,4.1775838 0.54352094,0.21974226"
           id="path4448"
           inkscape:connector-curvature="0" />
        <path
           style="fill:#000000;fill-opacity:1;fill-rule:evenodd;stroke:#000000;stroke-width:0.80000001;stroke-linecap:round;stroke-opacity:1"
           d="M -1.2866832,4.1775838 3.0617053,0.21974226"
           id="path4450"
           inkscape:connector-curvature="0" />
        <path
           style="fill:#000000;fill-opacity:1;fill-rule:evenodd;stroke:#000000;stroke-width:0.80000001;stroke-linecap:round;stroke-opacity:1"
           d="M 1.3053582,4.1775838 5.6537466,0.21974226"
           id="path4452"
           inkscape:connector-curvature="0" />
      </g>
    </marker>
    <marker
       inkscape:isstock="true"
       style="overflow:visible"
       id="Arrow1Lstart"
       refX="0"
       refY="0"
       orient="auto"
       inkscape:stockid="Arrow1Lstart">
      <path
         transform="matrix(0.8,0,0,0.8,10,0)"
         style="fill:#000000;fill-opacity:1;fill-rule:evenodd;stroke:#000000;stroke-width:1pt;stroke-opacity:1"
         d="M 0,0 5,-5 -12.5,0 5,5 0,0 z"
         id="path4404"
         inkscape:connector-curvature="0" />
    </marker>
    <marker
       inkscape:isstock="true"
       style="overflow:visible"
       id="Arrow2Lstart"
       refX="0"
       refY="0"
       orient="auto"
       inkscape:stockid="Arrow2Lstart">
      <path
         transform="matrix(1.1,0,0,1.1,1.1,0)"
         d="M 8.7185878,4.0337352 -2.2072895,0.01601326 8.7185884,-4.0017078 c -1.7454984,2.3720609 -1.7354408,5.6174519 -6e-7,8.035443 z"
         style="fill:#000000;fill-opacity:1;fill-rule:evenodd;stroke:#000000;stroke-width:0.625;stroke-linejoin:round;stroke-opacity:1"
         id="path4422"
         inkscape:connector-curvature="0" />
    </marker>
    <marker
       inkscape:isstock="true"
       style="overflow:visible"
       id="Arrow2Mstart"
       refX="0"
       refY="0"
       orient="auto"
       inkscape:stockid="Arrow2Mstart">
      <path
         transform="scale(0.6,0.6)"
         d="M 8.7185878,4.0337352 -2.2072895,0.01601326 8.7185884,-4.0017078 c -1.7454984,2.3720609 -1.7354408,5.6174519 -6e-7,8.035443 z"
         style="fill:#000000;fill-opacity:1;fill-rule:evenodd;stroke:#000000;stroke-width:0.625;stroke-linejoin:round;stroke-opacity:1"
         id="path4428"
         inkscape:connector-curvature="0" />
    </marker>
    <marker
       inkscape:isstock="true"
       style="overflow:visible"
       id="Arrow1Mend"
       refX="0"
       refY="0"
       orient="auto"
       inkscape:stockid="Arrow1Mend">
      <path
         transform="matrix(-0.4,0,0,-0.4,-4,0)"
         style="fill:#000000;fill-opacity:1;fill-rule:evenodd;stroke:#000000;stroke-width:1pt;stroke-opacity:1"
         d="M 0,0 5,-5 -12.5,0 5,5 0,0 z"
         id="path4413"
         inkscape:connector-curvature="0" />
    </marker>
    <marker
       inkscape:stockid="TriangleOutM"
       orient="auto"
       refY="0"
       refX="0"
       id="marker5252"
       style="overflow:visible"
       inkscape:isstock="true">
      <path
         id="path5254"
         d="m 5.77,0 -8.65,5 0,-10 8.65,5 z"
         style="fill:#000000;fill-opacity:1;fill-rule:evenodd;stroke:#000000;stroke-width:1pt;stroke-opacity:1"
         transform="scale(0.4,0.4)"
         inkscape:connector-curvature="0" />
    </marker>
  </defs>
  <sodipodi:namedview
     id="base"
     pagecolor="#ffffff"
     bordercolor="#666666"
     borderopacity="1.0"
     inkscape:pageopacity="0.0"
     inkscape:pageshadow="2"
     inkscape:zoom="1.4"
     inkscape:cx="374.9921"
     inkscape:cy="19.808779"
     inkscape:document-units="px"
     inkscape:current-layer="layer1"
     showgrid="false"
     inkscape:window-width="1327"
     inkscape:window-height="794"
     inkscape:window-x="48"
     inkscape:window-y="4"
     inkscape:window-maximized="0"
     fit-margin-left="0.5"
     fit-margin-bottom="5.5"
     fit-margin-top="5.5"
     fit-margin-right="0.5" />
  <metadata
     id="metadata3378">
    <rdf:RDF>
      <cc:Work
         rdf:about="">
        <dc:format>image/svg+xml</dc:format>
        <dc:type
           rdf:resource="http://purl.org/dc/dcmitype/StillImage" />
        <dc:title></dc:title>
      </cc:Work>
    </rdf:RDF>
  </metadata>
  <g
     inkscape:label="Layer 1"
     inkscape:groupmode="layer"
     id="layer1"
     transform="translate(1,-849.86218)">
    <path
       style="fill:none;stroke:#000000;stroke-width:1px;stroke-linecap:butt;stroke-linejoin:miter;stroke-opacity:1"
       d="m 75.5,880.36218 30,0"
       id="path4183"
       inkscape:connector-curvature="0"
       sodipodi:nodetypes="cc" />
    <path
       style="fill:none;stroke:#000000;stroke-width:1;stroke-linecap:butt;stroke-linejoin:miter;stroke-miterlimit:4;stroke-opacity:1;stroke-dasharray:3, 3;stroke-dashoffset:1.8"
       d="m 75.5,883.36218 30,0"
       id="path4185"
       inkscape:connector-curvature="0"
       sodipodi:nodetypes="cc" />
    <g
       id="g3930"
       inkscape:label="p1"
       transform="matrix(1.25,0,0,-1.25,391.23372,998.66015)">
      <g
         id="g3932"
         transform="matrix(0.1,0,0,0.1,-43.234529,1.8182746)">
        <g
           id="g3936"
           transform="scale(10,10)" />
      </g>
    </g>
    <g
       transform="matrix(1.25,0,0,-1.25,551.23372,1038.6602)"
       inkscape:label="p1"
       id="g3620">
      <g
         transform="matrix(0.1,0,0,0.1,-43.234529,1.8182746)"
         id="g3622">
        <g
           transform="scale(10,10)"
           id="g3624" />
      </g>
    </g>
    <path
       style="fill:none;stroke:#000000;stroke-width:2;stroke-linecap:butt;stroke-linejoin:miter;stroke-opacity:1;stroke-miterlimit:4;stroke-dasharray:none"
       d="m 90.5,881.86218 c 11.61675,-19.69797 20,-20 20,-20 l 20.00155,0 159.9969,0 20.00155,0 c 0,0 8.38324,0.30203 20,20"
       id="path3628"
       inkscape:connector-curvature="0"
       sodipodi:nodetypes="cccccc" />
    <path
       style="fill:none;stroke:#000000;stroke-width:1px;stroke-linecap:butt;stroke-linejoin:miter;stroke-opacity:1"
       d="m 315.5,960.36218 30,0"
       id="path3636"
       inkscape:connector-curvature="0"
       sodipodi:nodetypes="cc" />
    <path
       style="fill:none;stroke:#000000;stroke-width:1;stroke-linecap:butt;stroke-linejoin:miter;stroke-miterlimit:4;stroke-opacity:1;stroke-dasharray:3, 3;stroke-dashoffset:1.8"
       d="m 315.5,963.36218 30,0"
       id="path3638"
       inkscape:connector-curvature="0"
       sodipodi:nodetypes="cc" />
    <g
       id="g3640"
       inkscape:label="p1"
       transform="matrix(1.25,0,0,-1.25,631.23372,1078.6602)">
      <g
         id="g3642"
         transform="matrix(0.1,0,0,0.1,-43.234529,1.8182746)">
        <g
           id="g3644"
           transform="scale(10,10)" />
      </g>
    </g>
    <g
       transform="matrix(1.25,0,0,-1.25,711.23372,1038.6602)"
       inkscape:label="p1"
       id="g3656">
      <g
         transform="matrix(0.1,0,0,0.1,-43.234529,1.8182746)"
         id="g3658">
        <g
           transform="scale(10,10)"
           id="g3660" />
      </g>
    </g>
    <path
       style="fill:none;stroke:#000000;stroke-width:1px;stroke-linecap:butt;stroke-linejoin:miter;stroke-opacity:1"
       d="m 315.5,880.36218 30,0"
       id="path3668"
       inkscape:connector-curvature="0"
       sodipodi:nodetypes="cc" />
    <path
       style="fill:none;stroke:#000000;stroke-width:1;stroke-linecap:butt;stroke-linejoin:miter;stroke-miterlimit:4;stroke-opacity:1;stroke-dasharray:3, 3;stroke-dashoffset:1.8"
       d="m 315.5,883.36218 30,0"
       id="path3670"
       inkscape:connector-curvature="0"
       sodipodi:nodetypes="cc" />
    <g
       id="g3672"
       inkscape:label="p1"
       transform="matrix(1.25,0,0,-1.25,631.23372,998.66015)">
      <g
         id="g3674"
         transform="matrix(0.1,0,0,0.1,-43.234529,1.8182746)">
        <g
           id="g3676"
           transform="scale(10,10)" />
      </g>
    </g>
    <path
       sodipodi:nodetypes="cc"
       inkscape:connector-curvature="0"
       id="path3702"
       d="m 555.5,883.3622 30,0"
       style="fill:none;stroke:#999999;stroke-width:1px;stroke-linecap:butt;stroke-linejoin:miter;stroke-opacity:1" />
    <path
       sodipodi:nodetypes="cc"
       inkscape:connector-curvature="0"
       id="path3704"
       d="m 555.5,880.3622 30,0"
       style="fill:none;stroke:#999999;stroke-width:1;stroke-linecap:butt;stroke-linejoin:miter;stroke-miterlimit:4;stroke-opacity:1;stroke-dasharray:3, 3;stroke-dashoffset:1.80000000000000004" />
    <g
       transform="matrix(1.25,0,0,1.25,871.23372,765.06423)"
       inkscape:label="p1"
       id="g3706">
      <g
         transform="matrix(0.1,0,0,0.1,-43.234529,1.8182746)"
         id="g3708">
        <g
           transform="scale(10,10)"
           id="g3710" />
      </g>
    </g>
    <path
       style="fill:none;stroke:#000000;stroke-width:1px;stroke-linecap:butt;stroke-linejoin:miter;stroke-opacity:1"
       d="m 555.5,963.3622 30,0"
       id="path3718"
       inkscape:connector-curvature="0"
       sodipodi:nodetypes="cc" />
    <path
       style="fill:none;stroke:#000000;stroke-width:1;stroke-linecap:butt;stroke-linejoin:miter;stroke-miterlimit:4;stroke-opacity:1;stroke-dasharray:3, 3;stroke-dashoffset:1.8"
       d="m 555.5,960.3622 30,0"
       id="path3720"
       inkscape:connector-curvature="0"
       sodipodi:nodetypes="cc" />
    <g
       id="g3722"
       inkscape:label="p1"
       transform="matrix(1.25,0,0,1.25,871.23372,845.06423)">
      <g
         id="g3724"
         transform="matrix(0.1,0,0,0.1,-43.234529,1.8182746)">
        <g
           id="g3726"
           transform="scale(10,10)" />
      </g>
    </g>
    <path
       style="fill:none;stroke:#999999;stroke-width:0.99999994000000003px;stroke-linecap:butt;stroke-linejoin:miter;stroke-opacity:1"
       d="m 570.5,881.86218 c -11.61676,-19.69797 -20,-20 -20,-20 l -20.00033,0 -159.99687,0 -20.0028,0 c 0,0 -8.38325,0.30203 -20,20"
       id="path3728"
       inkscape:connector-curvature="0"
       sodipodi:nodetypes="cccccc" />
    <path
       style="fill:none;stroke:#000000;stroke-width:1.9;stroke-linecap:butt;stroke-linejoin:miter;stroke-opacity:1;stroke-miterlimit:4;stroke-dasharray:none"
       d="m 330.5,881.86218 c 11.61675,19.69797 20,20 20,20 l 20.00109,0 79.99691,0 20.002,0 c 0,0 8.38324,0.30203 20,20"
       id="path3730"
       inkscape:connector-curvature="0"
       sodipodi:nodetypes="cccccc" />
    <path
       style="fill:none;stroke:#999999;stroke-width:1px;stroke-linecap:butt;stroke-linejoin:miter;stroke-opacity:1"
       d="m 330.5,961.86218 c 11.61675,-19.69797 20,-20 20,-20 l 20.01519,0 79.9696,0 20.01521,0 c 0,0 7.38324,1.69797 19,-18"
       id="path3732"
       inkscape:connector-curvature="0"
       sodipodi:nodetypes="cccccc" />
    <path
       sodipodi:nodetypes="ccc"
       inkscape:connector-curvature="0"
       id="path3734"
       d="m 290.37576,981.86218 20.12424,0 c 0,0 8.38324,-0.30203 20,-20"
       style="fill:none;stroke:#999999;stroke-width:1px;stroke-linecap:butt;stroke-linejoin:miter;stroke-opacity:1" />
    <path
       sodipodi:nodetypes="ccc"
       inkscape:connector-curvature="0"
       id="path3852"
       d="m 50.5,901.86218 20,0 c 0,0 8.383245,-0.30203 20.000001,-20"
       style="fill:none;stroke:#999999;stroke-width:1px;stroke-linecap:butt;stroke-linejoin:miter;stroke-opacity:1" />
    <path
       style="fill:none;stroke:#000000;stroke-width:1.9;stroke-linecap:butt;stroke-linejoin:miter;stroke-opacity:1;stroke-miterlimit:4;stroke-dasharray:none;marker-mid:url(#Arrow2Mend)"
       d="m 70.5,861.86218 c 0,0 8.383245,0.30203 20.000001,20"
       id="path3858"
       inkscape:connector-curvature="0"
       sodipodi:nodetypes="cc" />
    <path
       sodipodi:nodetypes="ccc"
       inkscape:connector-curvature="0"
       id="path3863"
       d="m 290.5,901.86218 20,0 c 0,0 8.38324,-0.30203 20,-20"
       style="fill:none;stroke:#999999;stroke-width:1px;stroke-linecap:butt;stroke-linejoin:miter;stroke-opacity:1" />
    <path
       style="fill:none;stroke:#000000;stroke-width:1.9;stroke-linecap:butt;stroke-linejoin:miter;stroke-opacity:1;stroke-miterlimit:4;stroke-dasharray:none"
       d="m 330.5,961.86218 c 11.61675,19.69797 20,20 20,20 l 20.26249,0 159.50543,0 20.23208,0 c 0,0 8.38324,-0.30203 20,-20"
       id="path3885"
       inkscape:connector-curvature="0"
       sodipodi:nodetypes="cccccc" />
    <path
       style="fill:none;stroke:#000000;stroke-width:1.9;stroke-linecap:butt;stroke-linejoin:miter;stroke-opacity:1;stroke-miterlimit:4;stroke-dasharray:none"
       d="m 330.5,961.86218 c -11.61676,-19.69797 -20,-20 -20,-20 l -20,0 -20,0 c 0,0 -8.38325,-0.30203 -20,-20 -11.61676,-19.69797 -20,-20 -20,-20 l -20.00574,0 -79.99426,0 -20,0 c 0,0 -8.38325,-0.30203 -20,-20"
       id="path3889"
       inkscape:connector-curvature="0"
       sodipodi:nodetypes="cccccccccc" />
    <g
       id="g3956"
       transform="translate(10,40.000003)">
      <path
         style="fill:#ffffff;fill-opacity:1;stroke:#000000;stroke-width:0.99999994px;stroke-linecap:butt;stroke-linejoin:miter;stroke-opacity:1"
         d="m 152.5,865.86218 10,0 -5,-10 z"
         id="path3081"
         inkscape:connector-curvature="0"
         sodipodi:nodetypes="cccc" />
    </g>
    <path
       sodipodi:nodetypes="ccccc"
       inkscape:connector-curvature="0"
       id="path3895"
       d="m 490.5,921.86218 c 11.61675,19.69797 20,20 20,20 l 20,0 20,0 c 0,0 8.38324,0.30203 20,20"
       style="fill:none;stroke:#000000;stroke-width:1.9;stroke-linecap:butt;stroke-linejoin:miter;stroke-opacity:1;stroke-miterlimit:4;stroke-dasharray:none" />
    <path
       style="fill:none;stroke:#999999;stroke-width:1px;stroke-linecap:butt;stroke-linejoin:miter;stroke-opacity:1"
       d="m 491.5,919.86218 c 11.61675,-19.69797 19,-18 19,-18 l 20,0 20,0 c 0,0 8.38324,-0.30203 20,-20"
       id="path3897"
       inkscape:connector-curvature="0"
       sodipodi:nodetypes="ccccc" />
    <path
       style="fill:none;stroke:#999999;stroke-width:1px;stroke-linecap:butt;stroke-linejoin:miter;stroke-opacity:1"
       d="m 610.5,901.86218 -20,0 c 0,0 -8.38325,-0.30203 -20,-20"
       id="path3912"
       inkscape:connector-curvature="0"
       sodipodi:nodetypes="ccc" />
    <path
       sodipodi:nodetypes="ccc"
       inkscape:connector-curvature="0"
       id="path3914"
       d="m 610.5,861.86218 -20,0 c 0,0 -8.38325,0.30203 -20,20"
       style="fill:none;stroke:#999999;stroke-width:1px;stroke-linecap:butt;stroke-linejoin:miter;stroke-opacity:1" />
    <path
       sodipodi:nodetypes="ccc"
       inkscape:connector-curvature="0"
       id="path3922"
       d="m 610.5,981.86218 -20,0 c 0,0 -8.38325,-0.30203 -20,-20"
       style="fill:none;stroke:#000000;stroke-width:2;stroke-linecap:butt;stroke-linejoin:miter;stroke-opacity:1;stroke-miterlimit:4;stroke-dasharray:none" />
    <path
       style="fill:none;stroke:#000000;stroke-width:2;stroke-linecap:butt;stroke-linejoin:miter;stroke-opacity:1;stroke-miterlimit:4;stroke-dasharray:none"
       d="m 610.5,941.86218 -20,0 c 0,0 -8.38325,0.30203 -20,20"
       id="path3924"
       inkscape:connector-curvature="0"
       sodipodi:nodetypes="ccc" />
    <g
       transform="translate(10,2.6469897e-6)"
       id="g3959">
      <path
         sodipodi:nodetypes="cccc"
         inkscape:connector-curvature="0"
         id="path3961"
         d="m 152.5,865.86218 10,0 -5,-10 z"
         style="fill:#ffffff;fill-opacity:1;stroke:#000000;stroke-width:0.99999994px;stroke-linecap:butt;stroke-linejoin:miter;stroke-opacity:1" />
    </g>
    <g
       transform="translate(250,40.000003)"
       id="g3963">
      <path
         sodipodi:nodetypes="cccc"
         inkscape:connector-curvature="0"
         id="path3965"
         d="m 152.5,865.86218 10,0 -5,-10 z"
         style="fill:#ffffff;fill-opacity:1;stroke:#000000;stroke-width:0.99999994px;stroke-linecap:butt;stroke-linejoin:miter;stroke-opacity:1" />
    </g>
    <g
       id="g3967"
       transform="translate(250,2.6469897e-6)">
      <path
         style="fill:#ffffff;fill-opacity:1;stroke:#000000;stroke-width:0.99999994px;stroke-linecap:butt;stroke-linejoin:miter;stroke-opacity:1"
         d="m 152.5,865.86218 10,0 -5,-10 z"
         id="path3969"
         inkscape:connector-curvature="0"
         sodipodi:nodetypes="cccc" />
    </g>
    <path
       style="fill:none;stroke:#000000;stroke-width:1.9;stroke-linecap:butt;stroke-linejoin:miter;stroke-opacity:1;marker-mid:url(#Arrow2Mend);stroke-miterlimit:4;stroke-dasharray:none"
       d="m 0,861.86218 35.25,0 35.25,0"
       id="path3971"
       inkscape:connector-curvature="0"
       sodipodi:nodetypes="ccc" />
    <path
       style="fill:none;stroke:#999999;stroke-width:1px;stroke-linecap:butt;stroke-linejoin:miter;stroke-opacity:1;marker-mid:url(#Arrow2Lend)"
       d="m 0,981.86218 32.5,0 258,0"
       id="path3973"
       inkscape:connector-curvature="0"
       sodipodi:nodetypes="ccc" />
    <path
       transform="matrix(0,2,2,0,-50,-803.86218)"
       sodipodi:type="arc"
       style="fill:#999999;fill-opacity:1;stroke:none"
       id="path4309"
       sodipodi:cx="832.86218"
       sodipodi:cy="330"
       sodipodi:rx="2.5"
       sodipodi:ry="3.9999998"
       d="m 835.36218,330 c 0,2.20914 -1.11929,4 -2.5,4 -1.38071,0 -2.5,-1.79086 -2.5,-4 0,0 0,0 0,0"
       sodipodi:start="0"
       sodipodi:end="3.1415927"
       sodipodi:open="true" />
    <path
       sodipodi:open="true"
       sodipodi:end="3.1415927"
       sodipodi:start="0"
       d="m 835.36218,330 c 0,2.20914 -1.11929,4 -2.5,4 -1.38071,0 -2.5,-1.79086 -2.5,-4 0,0 0,0 0,0"
       sodipodi:ry="3.9999998"
       sodipodi:rx="2.5"
       sodipodi:cy="330"
       sodipodi:cx="832.86218"
       id="path6009"
       style="fill:#999999;fill-opacity:1;stroke:none"
       sodipodi:type="arc"
       transform="matrix(0,2,2,0,-50,-763.86218)" />
    <path
       transform="matrix(0,2,2,0,-50,-723.86218)"
       sodipodi:type="arc"
       style="fill:#000000;fill-opacity:1;stroke:none"
       id="path6011"
       sodipodi:cx="832.86218"
       sodipodi:cy="330"
       sodipodi:rx="2.5"
       sodipodi:ry="3.9999998"
       d="m 835.36218,330 c 0,2.20914 -1.11929,4 -2.5,4 -1.38071,0 -2.5,-1.79086 -2.5,-4 0,0 0,0 0,0"
       sodipodi:start="0"
       sodipodi:end="3.1415927"
       sodipodi:open="true" />
    <path
       sodipodi:open="true"
       sodipodi:end="3.1415927"
       sodipodi:start="0"
       d="m 835.36218,330 c 0,2.20914 -1.11929,4 -2.5,4 -1.38071,0 -2.5,-1.79086 -2.5,-4 0,0 0,0 0,0"
       sodipodi:ry="3.9999998"
       sodipodi:rx="2.5"
       sodipodi:cy="330"
       sodipodi:cx="832.86218"
       id="path6013"
       style="fill:#000000;fill-opacity:1;stroke:none"
       sodipodi:type="arc"
       transform="matrix(0,2,2,0,-50,-683.86218)" />
  </g>
</svg>
