<?xml version="1.0" encoding="UTF-8" standalone="no"?>
<!-- Created with Inkscape (http://www.inkscape.org/) -->

<svg
   xmlns:dc="http://purl.org/dc/elements/1.1/"
   xmlns:cc="http://creativecommons.org/ns#"
   xmlns:rdf="http://www.w3.org/1999/02/22-rdf-syntax-ns#"
   xmlns:svg="http://www.w3.org/2000/svg"
   xmlns="http://www.w3.org/2000/svg"
   xmlns:sodipodi="http://sodipodi.sourceforge.net/DTD/sodipodi-0.dtd"
   xmlns:inkscape="http://www.inkscape.org/namespaces/inkscape"
   width="201.00002"
   height="56"
   id="svg3081"
   version="1.1"
   inkscape:version="0.48.5 r10040"
   sodipodi:docname="beamsplittermzi.svg">
  <defs
     id="defs3083">
    <linearGradient
       id="linearGradient4438">
      <stop
         id="stop4440"
         offset="0"
         style="stop-color:#b2b2b2;stop-opacity:0;" />
      <stop
         id="stop4442"
         offset="1"
         style="stop-color:#000000;stop-opacity:1;" />
    </linearGradient>
    <linearGradient
       id="linearGradient4422">
      <stop
         style="stop-color:#000000;stop-opacity:1;"
         offset="0"
         id="stop4424" />
      <stop
         style="stop-color:#b2b2b2;stop-opacity:0;"
         offset="1"
         id="stop4426" />
    </linearGradient>
    <marker
       style="overflow:visible"
       id="Arrow2Lend-1"
       refX="0"
       refY="0"
       orient="auto"
       inkscape:stockid="Arrow2Lend">
      <path
         inkscape:connector-curvature="0"
         transform="matrix(-1.1,0,0,-1.1,-1.1,0)"
         d="M 8.7185878,4.0337352 -2.2072895,0.01601326 8.7185884,-4.0017078 c -1.7454984,2.3720609 -1.7354408,5.6174519 -6e-7,8.035443 z"
         style="fill-rule:evenodd;stroke-width:0.625;stroke-linejoin:round"
         id="path3862-5" />
    </marker>
    <marker
       style="overflow:visible"
       id="Arrow2Lend"
       refX="0"
       refY="0"
       orient="auto"
       inkscape:stockid="Arrow2Lend">
      <path
         inkscape:connector-curvature="0"
         transform="matrix(-1.1,0,0,-1.1,-1.1,0)"
         d="M 8.7185878,4.0337352 -2.2072895,0.01601326 8.7185884,-4.0017078 c -1.7454984,2.3720609 -1.7354408,5.6174519 -6e-7,8.035443 z"
         style="fill-rule:evenodd;stroke-width:0.625;stroke-linejoin:round"
         id="path3862" />
    </marker>
  </defs>
  <sodipodi:namedview
     id="base"
     pagecolor="#ffffff"
     bordercolor="#666666"
     borderopacity="1.0"
     inkscape:pageopacity="0.0"
     inkscape:pageshadow="2"
     inkscape:zoom="0.70710678"
     inkscape:cx="228.66664"
     inkscape:cy="-30.762067"
     inkscape:document-units="px"
     inkscape:current-layer="layer1"
     showgrid="false"
     inkscape:window-width="1440"
     inkscape:window-height="851"
     inkscape:window-x="0"
     inkscape:window-y="0"
     inkscape:window-maximized="1"
     fit-margin-top="5"
     fit-margin-left="5"
     fit-margin-right="5"
     fit-margin-bottom="5" />
  <metadata
     id="metadata3086">
    <rdf:RDF>
      <cc:Work
         rdf:about="">
        <dc:format>image/svg+xml</dc:format>
        <dc:type
           rdf:resource="http://purl.org/dc/dcmitype/StillImage" />
        <dc:title></dc:title>
      </cc:Work>
    </rdf:RDF>
  </metadata>
  <g
     inkscape:label="Layer 1"
     inkscape:groupmode="layer"
     id="layer1"
     transform="translate(-329.99999,-741.36218)">
    <g
       id="g3253"
       inkscape:label="p1"
       transform="matrix(1.25,0,0,-1.25,461.23372,1068.6602)">
      <g
         id="g3255"
         transform="matrix(0.1,0,0,0.1,-43.234529,1.8182746)">
        <g
           id="g3257"
           transform="scale(10,10)" />
      </g>
    </g>
    <g
       id="g4129"
       inkscape:label="p1"
       transform="matrix(1.25,0,0,-1.25,621.23372,1068.6602)">
      <g
         id="g4131"
         transform="matrix(0.1,0,0,0.1,-43.234529,1.8182746)">
        <g
           id="g4133"
           transform="scale(10,10)" />
      </g>
    </g>
    <g
       id="g4172"
       inkscape:label="p1"
       transform="matrix(1.25,0,0,-1.25,781.23372,1068.6602)">
      <g
         id="g4174"
         transform="matrix(0.1,0,0,0.1,-43.234529,1.8182746)">
        <g
           id="g4176"
           transform="scale(10,10)" />
      </g>
    </g>
    <g
       transform="matrix(1.25,0,0,-1.25,532.87658,910.23158)"
       inkscape:label="p1"
       id="g4657">
      <g
         transform="matrix(0.1,0,0,0.1,-43.234529,1.8182746)"
         id="g4659">
        <g
           transform="scale(10,10)"
           id="g4661" />
      </g>
    </g>
    <g
       transform="matrix(1.25,0,0,-1.25,539.30515,838.08873)"
       inkscape:label="p1"
       id="g4684">
      <g
         transform="matrix(0.1,0,0,0.1,-43.234529,1.8182746)"
         id="g4686">
        <g
           transform="scale(10,10)"
           id="g4688" />
      </g>
    </g>
    <path
       sodipodi:nodetypes="ccsccscccsccscc"
       inkscape:connector-curvature="0"
       id="path4701"
       d="m 525.5,751.86218 -22.50001,0 c 0,0 -5.23952,0.13591 -12.5,9 -7.10112,8.66954 -12.5,9 -12.5,9 -5,0 -10,0 -15,0 0,0 -5.39888,-0.33046 -12.5,-9 -7.26048,-8.86409 -12.5,-9 -12.5,-9 l -12.5,0 -12.5,0 c 0,0 -5.23952,0.13591 -12.5,9 -7.10112,8.66954 -12.5,9 -12.5,9 -5,0 -10,0 -15,0 0,0 -5.39888,-0.33046 -12.5,-9 -7.26048,-8.86409 -12.5,-9 -12.5,-9 l -12.5,0"
       style="fill:none;stroke:#000000;stroke-width:1px;stroke-linecap:butt;stroke-linejoin:miter;stroke-opacity:1" />
    <path
       style="fill:none;stroke:#000000;stroke-width:0.99999988px;stroke-linecap:butt;stroke-linejoin:miter;stroke-opacity:1"
       d="m 525.5,791.86218 -22.50001,0 c 0,0 -5.23953,-0.13591 -12.5,-9 -7.10112,-8.66954 -12.5,-9 -12.5,-9 -5,0 -10,0 -15,0 0,0 -5.39888,0.33046 -12.5,9 -7.26047,8.86409 -12.5,9 -12.5,9 l -12.5,0 -12.5,0 c 0,0 -5.23953,-0.13591 -12.5,-9 -7.10112,-8.66954 -12.5,-9 -12.5,-9 -5,0 -10,0 -15,0 0,0 -5.39888,0.33046 -12.5,9 -7.26047,8.86409 -12.5,9 -12.5,9 l -12.5,0"
       id="path4703"
       inkscape:connector-curvature="0"
       sodipodi:nodetypes="ccsccscccsccscc" />
    <path
       style="fill:#ffffff;fill-opacity:1;stroke:#000000;stroke-width:0.99999994px;stroke-linecap:butt;stroke-linejoin:miter;stroke-opacity:1"
       d="m 420.49999,756.86218 10,0 -5,-10 z"
       id="path4705"
       inkscape:connector-curvature="0"
       sodipodi:nodetypes="cccc" />
  </g>
</svg>
