<?xml version="1.0" encoding="UTF-8" standalone="no"?>
<!-- Created with Inkscape (http://www.inkscape.org/) -->

<svg
   xmlns:dc="http://purl.org/dc/elements/1.1/"
   xmlns:cc="http://creativecommons.org/ns#"
   xmlns:rdf="http://www.w3.org/1999/02/22-rdf-syntax-ns#"
   xmlns:svg="http://www.w3.org/2000/svg"
   xmlns="http://www.w3.org/2000/svg"
   xmlns:sodipodi="http://sodipodi.sourceforge.net/DTD/sodipodi-0.dtd"
   xmlns:inkscape="http://www.inkscape.org/namespaces/inkscape"
   width="314"
   height="81.004135"
   id="svg3373"
   version="1.1"
   inkscape:version="0.91 r13725"
   sodipodi:docname="interferometerCD.svg">
  <defs
     id="defs3375">
    <marker
       inkscape:stockid="Arrow2Mend"
       orient="auto"
       refY="0"
       refX="0"
       id="Arrow2Mend"
       style="overflow:visible">
      <path
         id="path4786"
         style="fill-rule:evenodd;stroke-width:0.625;stroke-linejoin:round"
         d="M 8.7185878,4.0337352 -2.2072895,0.01601326 8.7185884,-4.0017078 c -1.7454984,2.3720609 -1.7354408,5.6174519 -6e-7,8.035443 z"
         transform="scale(-0.6,-0.6)"
         inkscape:connector-curvature="0" />
    </marker>
    <marker
       style="overflow:visible"
       id="Arrow2Lend-1"
       refX="0"
       refY="0"
       orient="auto"
       inkscape:stockid="Arrow2Lend">
      <path
         inkscape:connector-curvature="0"
         transform="matrix(-1.1,0,0,-1.1,-1.1,0)"
         d="M 8.7185878,4.0337352 -2.2072895,0.01601326 8.7185884,-4.0017078 c -1.7454984,2.3720609 -1.7354408,5.6174519 -6e-7,8.035443 z"
         style="fill-rule:evenodd;stroke-width:0.625;stroke-linejoin:round"
         id="path3862-5" />
    </marker>
    <marker
       style="overflow:visible"
       id="Arrow2Lend"
       refX="0"
       refY="0"
       orient="auto"
       inkscape:stockid="Arrow2Lend">
      <path
         inkscape:connector-curvature="0"
         transform="matrix(-1.1,0,0,-1.1,-1.1,0)"
         d="M 8.7185878,4.0337352 -2.2072895,0.01601326 8.7185884,-4.0017078 c -1.7454984,2.3720609 -1.7354408,5.6174519 -6e-7,8.035443 z"
         style="fill-rule:evenodd;stroke-width:0.625;stroke-linejoin:round"
         id="path3862" />
    </marker>
    <marker
       inkscape:isstock="true"
       style="overflow:visible"
       id="Arrow2Lend-7"
       refX="0"
       refY="0"
       orient="auto"
       inkscape:stockid="Arrow2Lend">
      <path
         transform="matrix(-1.1,0,0,-1.1,-1.1,0)"
         d="M 8.7185878,4.0337352 -2.2072895,0.01601326 8.7185884,-4.0017078 c -1.7454984,2.3720609 -1.7354408,5.6174519 -6e-7,8.035443 z"
         style="fill:#000000;fill-opacity:1;fill-rule:evenodd;stroke:#000000;stroke-width:0.625;stroke-linejoin:round;stroke-opacity:1"
         id="path4425"
         inkscape:connector-curvature="0" />
    </marker>
    <marker
       inkscape:isstock="true"
       style="overflow:visible"
       id="Tail"
       refX="0"
       refY="0"
       orient="auto"
       inkscape:stockid="Tail">
      <g
         style="fill:#000000;fill-opacity:1;stroke:#000000;stroke-opacity:1"
         transform="scale(-1.2,-1.2)"
         id="g4440">
        <path
           style="fill:#000000;fill-opacity:1;fill-rule:evenodd;stroke:#000000;stroke-width:0.80000001;stroke-linecap:round;stroke-opacity:1"
           d="M -3.8048674,-3.9585227 0.54352094,0"
           id="path4442"
           inkscape:connector-curvature="0" />
        <path
           style="fill:#000000;fill-opacity:1;fill-rule:evenodd;stroke:#000000;stroke-width:0.80000001;stroke-linecap:round;stroke-opacity:1"
           d="M -1.2866832,-3.9585227 3.0617053,0"
           id="path4444"
           inkscape:connector-curvature="0" />
        <path
           style="fill:#000000;fill-opacity:1;fill-rule:evenodd;stroke:#000000;stroke-width:0.80000001;stroke-linecap:round;stroke-opacity:1"
           d="M 1.3053582,-3.9585227 5.6537466,0"
           id="path4446"
           inkscape:connector-curvature="0" />
        <path
           style="fill:#000000;fill-opacity:1;fill-rule:evenodd;stroke:#000000;stroke-width:0.80000001;stroke-linecap:round;stroke-opacity:1"
           d="M -3.8048674,4.1775838 0.54352094,0.21974226"
           id="path4448"
           inkscape:connector-curvature="0" />
        <path
           style="fill:#000000;fill-opacity:1;fill-rule:evenodd;stroke:#000000;stroke-width:0.80000001;stroke-linecap:round;stroke-opacity:1"
           d="M -1.2866832,4.1775838 3.0617053,0.21974226"
           id="path4450"
           inkscape:connector-curvature="0" />
        <path
           style="fill:#000000;fill-opacity:1;fill-rule:evenodd;stroke:#000000;stroke-width:0.80000001;stroke-linecap:round;stroke-opacity:1"
           d="M 1.3053582,4.1775838 5.6537466,0.21974226"
           id="path4452"
           inkscape:connector-curvature="0" />
      </g>
    </marker>
    <marker
       inkscape:isstock="true"
       style="overflow:visible"
       id="Arrow1Lstart"
       refX="0"
       refY="0"
       orient="auto"
       inkscape:stockid="Arrow1Lstart">
      <path
         transform="matrix(0.8,0,0,0.8,10,0)"
         style="fill:#000000;fill-opacity:1;fill-rule:evenodd;stroke:#000000;stroke-width:1pt;stroke-opacity:1"
         d="M 0,0 5,-5 -12.5,0 5,5 0,0 Z"
         id="path4404"
         inkscape:connector-curvature="0" />
    </marker>
    <marker
       inkscape:isstock="true"
       style="overflow:visible"
       id="Arrow2Lstart"
       refX="0"
       refY="0"
       orient="auto"
       inkscape:stockid="Arrow2Lstart">
      <path
         transform="matrix(1.1,0,0,1.1,1.1,0)"
         d="M 8.7185878,4.0337352 -2.2072895,0.01601326 8.7185884,-4.0017078 c -1.7454984,2.3720609 -1.7354408,5.6174519 -6e-7,8.035443 z"
         style="fill:#000000;fill-opacity:1;fill-rule:evenodd;stroke:#000000;stroke-width:0.625;stroke-linejoin:round;stroke-opacity:1"
         id="path4422"
         inkscape:connector-curvature="0" />
    </marker>
    <marker
       inkscape:isstock="true"
       style="overflow:visible"
       id="Arrow2Mstart"
       refX="0"
       refY="0"
       orient="auto"
       inkscape:stockid="Arrow2Mstart">
      <path
         transform="scale(0.6,0.6)"
         d="M 8.7185878,4.0337352 -2.2072895,0.01601326 8.7185884,-4.0017078 c -1.7454984,2.3720609 -1.7354408,5.6174519 -6e-7,8.035443 z"
         style="fill:#000000;fill-opacity:1;fill-rule:evenodd;stroke:#000000;stroke-width:0.625;stroke-linejoin:round;stroke-opacity:1"
         id="path4428"
         inkscape:connector-curvature="0" />
    </marker>
    <marker
       inkscape:isstock="true"
       style="overflow:visible"
       id="Arrow1Mend"
       refX="0"
       refY="0"
       orient="auto"
       inkscape:stockid="Arrow1Mend">
      <path
         transform="matrix(-0.4,0,0,-0.4,-4,0)"
         style="fill:#000000;fill-opacity:1;fill-rule:evenodd;stroke:#000000;stroke-width:1pt;stroke-opacity:1"
         d="M 0,0 5,-5 -12.5,0 5,5 0,0 Z"
         id="path4413"
         inkscape:connector-curvature="0" />
    </marker>
    <marker
       inkscape:stockid="TriangleOutM"
       orient="auto"
       refY="0"
       refX="0"
       id="marker5252"
       style="overflow:visible"
       inkscape:isstock="true">
      <path
         id="path5254"
         d="m 5.77,0 -8.65,5 0,-10 8.65,5 z"
         style="fill:#000000;fill-opacity:1;fill-rule:evenodd;stroke:#000000;stroke-width:1pt;stroke-opacity:1"
         transform="scale(0.4,0.4)"
         inkscape:connector-curvature="0" />
    </marker>
  </defs>
  <sodipodi:namedview
     id="base"
     pagecolor="#ffffff"
     bordercolor="#666666"
     borderopacity="1.0"
     inkscape:pageopacity="0.0"
     inkscape:pageshadow="2"
     inkscape:zoom="2.8"
     inkscape:cx="95.604766"
     inkscape:cy="42.987071"
     inkscape:document-units="px"
     inkscape:current-layer="layer1"
     showgrid="false"
     inkscape:window-width="1327"
     inkscape:window-height="794"
     inkscape:window-x="48"
     inkscape:window-y="27"
     inkscape:window-maximized="0"
     fit-margin-top="5.5"
     fit-margin-left="0.5"
     fit-margin-right="0.5"
     fit-margin-bottom="5.5" />
  <metadata
     id="metadata3378">
    <rdf:RDF>
      <cc:Work
         rdf:about="">
        <dc:format>image/svg+xml</dc:format>
        <dc:type
           rdf:resource="http://purl.org/dc/dcmitype/StillImage" />
        <dc:title></dc:title>
      </cc:Work>
    </rdf:RDF>
  </metadata>
  <g
     inkscape:label="Layer 1"
     inkscape:groupmode="layer"
     id="layer1"
     transform="translate(0.5,-913.35804)">
    <path
       style="fill:none;stroke:#000000;stroke-width:1.00000012px;stroke-linecap:butt;stroke-linejoin:miter;stroke-opacity:1"
       d="m 37.75,934.06665 15,0"
       id="path4183"
       inkscape:connector-curvature="0"
       sodipodi:nodetypes="cc" />
    <path
       style="fill:none;stroke:#000000;stroke-width:1;stroke-linecap:butt;stroke-linejoin:miter;stroke-miterlimit:4;stroke-dasharray:2, 2;stroke-dashoffset:1.79999971;stroke-opacity:1"
       d="m 37.75,936.55357 15,0"
       id="path4185"
       inkscape:connector-curvature="0"
       sodipodi:nodetypes="cc" />
    <g
       id="g3930"
       inkscape:label="p1"
       transform="matrix(0.625,0,0,-0.61966587,195.61686,992.71082)">
      <g
         id="g3932"
         transform="matrix(0.1,0,0,0.1,-43.234529,1.8182746)">
        <g
           id="g3936"
           transform="scale(10,10)" />
      </g>
    </g>
    <g
       transform="matrix(0.625,0,0,-0.61966587,275.61686,1012.5402)"
       inkscape:label="p1"
       id="g3620">
      <g
         transform="matrix(0.1,0,0,0.1,-43.234529,1.8182746)"
         id="g3622">
        <g
           transform="scale(10,10)"
           id="g3624" />
      </g>
    </g>
    <path
       style="fill:none;stroke:#000000;stroke-width:2.00000024;stroke-linecap:butt;stroke-linejoin:miter;stroke-miterlimit:4;stroke-dasharray:none;stroke-opacity:1"
       d="m 45.25,934.81025 c 5.808375,-9.76493 10,-9.91465 10,-9.91465 l 10.000775,0 79.998455,0 10.00077,0 c 0,0 4.19162,0.14972 10,9.91465"
       id="path3628"
       inkscape:connector-curvature="0"
       sodipodi:nodetypes="cccccc" />
    <path
       style="fill:none;stroke:#000000;stroke-width:1.00000012px;stroke-linecap:butt;stroke-linejoin:miter;stroke-opacity:1"
       d="m 157.75,973.72527 15,0"
       id="path3636"
       inkscape:connector-curvature="0"
       sodipodi:nodetypes="cc" />
    <path
       style="fill:none;stroke:#000000;stroke-width:1;stroke-linecap:butt;stroke-linejoin:miter;stroke-miterlimit:4;stroke-dasharray:2, 2;stroke-dashoffset:1.79999971;stroke-opacity:1"
       d="m 157.75,976.21218 15,0"
       id="path3638"
       inkscape:connector-curvature="0"
       sodipodi:nodetypes="cc" />
    <g
       id="g3640"
       inkscape:label="p1"
       transform="matrix(0.625,0,0,-0.61966587,315.61686,1032.3695)">
      <g
         id="g3642"
         transform="matrix(0.1,0,0,0.1,-43.234529,1.8182746)">
        <g
           id="g3644"
           transform="scale(10,10)" />
      </g>
    </g>
    <g
       transform="matrix(0.625,0,0,-0.61966587,355.61686,1012.5402)"
       inkscape:label="p1"
       id="g3656">
      <g
         transform="matrix(0.1,0,0,0.1,-43.234529,1.8182746)"
         id="g3658">
        <g
           transform="scale(10,10)"
           id="g3660" />
      </g>
    </g>
    <path
       style="fill:none;stroke:#000000;stroke-width:1.00000012px;stroke-linecap:butt;stroke-linejoin:miter;stroke-opacity:1"
       d="m 157.75,934.06665 15,0"
       id="path3668"
       inkscape:connector-curvature="0"
       sodipodi:nodetypes="cc" />
    <path
       style="fill:none;stroke:#000000;stroke-width:1;stroke-linecap:butt;stroke-linejoin:miter;stroke-miterlimit:4;stroke-dasharray:2, 2;stroke-dashoffset:1.79999971;stroke-opacity:1"
       d="m 157.75,936.55357 15,0"
       id="path3670"
       inkscape:connector-curvature="0"
       sodipodi:nodetypes="cc" />
    <g
       id="g3672"
       inkscape:label="p1"
       transform="matrix(0.625,0,0,-0.61966587,315.61686,992.71082)">
      <g
         id="g3674"
         transform="matrix(0.1,0,0,0.1,-43.234529,1.8182746)">
        <g
           id="g3676"
           transform="scale(10,10)" />
      </g>
    </g>
    <path
       sodipodi:nodetypes="cc"
       inkscape:connector-curvature="0"
       id="path3702"
       d="m 277.75,935.55386 15,0"
       style="fill:none;stroke:#000000;stroke-width:1.00000012px;stroke-linecap:butt;stroke-linejoin:miter;stroke-opacity:1" />
    <path
       sodipodi:nodetypes="cc"
       inkscape:connector-curvature="0"
       id="path3704"
       d="m 277.75,933.06656 15,0"
       style="fill:none;stroke:#000000;stroke-width:1.00000012;stroke-linecap:butt;stroke-linejoin:miter;stroke-miterlimit:4;stroke-dasharray:2.00000024, 2.00000024;stroke-dashoffset:1.79999995;stroke-opacity:1" />
    <g
       transform="matrix(0.625,0,0,0.61966587,435.61686,876.90969)"
       inkscape:label="p1"
       id="g3706">
      <g
         transform="matrix(0.1,0,0,0.1,-43.234529,1.8182746)"
         id="g3708">
        <g
           transform="scale(10,10)"
           id="g3710" />
      </g>
    </g>
    <path
       style="fill:none;stroke:#999999;stroke-width:1.00000012px;stroke-linecap:butt;stroke-linejoin:miter;stroke-opacity:1"
       d="m 277.75,975.21247 15,0"
       id="path3718"
       inkscape:connector-curvature="0"
       sodipodi:nodetypes="cc" />
    <path
       style="fill:none;stroke:#999999;stroke-width:1.00000012;stroke-linecap:butt;stroke-linejoin:miter;stroke-miterlimit:4;stroke-dasharray:2.00000024, 2.00000024;stroke-dashoffset:1.79999995;stroke-opacity:1"
       d="m 277.75,972.72518 15,0"
       id="path3720"
       inkscape:connector-curvature="0"
       sodipodi:nodetypes="cc" />
    <g
       id="g3722"
       inkscape:label="p1"
       transform="matrix(0.625,0,0,0.61966587,435.61686,916.5683)">
      <g
         id="g3724"
         transform="matrix(0.1,0,0,0.1,-43.234529,1.8182746)">
        <g
           id="g3726"
           transform="scale(10,10)" />
      </g>
    </g>
    <path
       style="fill:none;stroke:#000000;stroke-width:2.00000024;stroke-linecap:butt;stroke-linejoin:miter;stroke-miterlimit:4;stroke-dasharray:none;stroke-opacity:1"
       d="m 285.25,934.81025 c -5.80838,-9.76493 -10,-9.91465 -10,-9.91465 l -10.00016,0 -79.99844,0 -10.0014,0 c 0,0 -4.19162,0.14972 -10,9.91465"
       id="path3728"
       inkscape:connector-curvature="0"
       sodipodi:nodetypes="cccccc" />
    <path
       style="fill:none;stroke:#999999;stroke-width:1.00000012px;stroke-linecap:butt;stroke-linejoin:miter;stroke-opacity:1"
       d="m 165.25,934.81025 c 5.80837,9.76493 10,9.91465 10,9.91465 l 10.00054,0 39.99846,0 10.001,0 c 0,0 4.19162,0.14973 10,9.91466"
       id="path3730"
       inkscape:connector-curvature="0"
       sodipodi:nodetypes="cccccc" />
    <path
       style="fill:none;stroke:#000000;stroke-width:2.00000024;stroke-linecap:butt;stroke-linejoin:miter;stroke-miterlimit:4;stroke-dasharray:none;stroke-opacity:1"
       d="m 165.25,974.46887 c 5.80837,-9.76493 10,-9.91466 10,-9.91466 l 10.00759,0 39.98481,0 10.0076,0 c 0,0 3.69162,0.84174 9.5,-8.92319"
       id="path3732"
       inkscape:connector-curvature="0"
       sodipodi:nodetypes="cccccc" />
    <path
       sodipodi:nodetypes="ccc"
       inkscape:connector-curvature="0"
       id="path3734"
       d="m 145.18788,984.38352 10.06212,0 c 0,0 4.19162,-0.14973 10,-9.91465"
       style="fill:none;stroke:#999999;stroke-width:1.00000012px;stroke-linecap:butt;stroke-linejoin:miter;stroke-opacity:1" />
    <path
       sodipodi:nodetypes="ccc"
       inkscape:connector-curvature="0"
       id="path3852"
       d="m 25.25,944.7249 10,0 c 0,0 4.191622,-0.14972 10,-9.91465"
       style="fill:none;stroke:#999999;stroke-width:1.00000012px;stroke-linecap:butt;stroke-linejoin:miter;stroke-opacity:1" />
    <path
       style="fill:none;stroke:#000000;stroke-width:2.00000024;stroke-linecap:butt;stroke-linejoin:miter;stroke-miterlimit:4;stroke-dasharray:none;stroke-opacity:1"
       d="m 35.25,924.8956 c 0,0 4.191622,0.14972 10,9.91465"
       id="path3858"
       inkscape:connector-curvature="0"
       sodipodi:nodetypes="cc" />
    <path
       sodipodi:nodetypes="ccc"
       inkscape:connector-curvature="0"
       id="path3863"
       d="m 145.25,944.7249 10,0 c 0,0 4.19162,-0.14972 10,-9.91465"
       style="fill:none;stroke:#999999;stroke-width:1.00000012px;stroke-linecap:butt;stroke-linejoin:miter;stroke-opacity:1" />
    <path
       style="fill:none;stroke:#999999;stroke-width:1.00000012px;stroke-linecap:butt;stroke-linejoin:miter;stroke-opacity:1"
       d="m 165.25,974.46887 c 5.80837,9.76492 10,9.91465 10,9.91465 l 10.13124,0 79.75272,0 10.11604,0 c 0,0 4.19162,-0.14973 10,-9.91465"
       id="path3885"
       inkscape:connector-curvature="0"
       sodipodi:nodetypes="cccccc" />
    <path
       style="fill:none;stroke:#000000;stroke-width:2.00000024;stroke-linecap:butt;stroke-linejoin:miter;stroke-miterlimit:4;stroke-dasharray:none;stroke-opacity:1"
       d="m 165.25,974.46887 c -5.80838,-9.76493 -10,-9.91466 -10,-9.91466 l -10,0 -10,0 c 0,0 -4.19163,-0.14972 -10,-9.91465 -5.80838,-9.76493 -10,-9.91466 -10,-9.91466 l -10.00287,0 -39.99713,0 -10,0 c 0,0 -4.191625,-0.14972 -10,-9.91465"
       id="path3889"
       inkscape:connector-curvature="0"
       sodipodi:nodetypes="cccccccccc" />
    <g
       id="g3956"
       transform="matrix(0.9993017,0,0,0.99077306,-71.143509,91.835397)">
      <path
         style="fill:#ffffff;fill-opacity:1;stroke:#000000;stroke-width:1.00499654px;stroke-linecap:butt;stroke-linejoin:miter;stroke-opacity:1"
         d="m 152.5,865.86218 10,0 -5,-10 z"
         id="path3081"
         inkscape:connector-curvature="0"
         sodipodi:nodetypes="cccc" />
    </g>
    <path
       sodipodi:nodetypes="ccccc"
       inkscape:connector-curvature="0"
       id="path3895"
       d="m 245.25,954.63956 c 5.80837,9.76493 10,9.91465 10,9.91465 l 10,0 10,0 c 0,0 4.19162,0.14973 10,9.91466"
       style="fill:none;stroke:#999999;stroke-width:1.00000012px;stroke-linecap:butt;stroke-linejoin:miter;stroke-opacity:1" />
    <path
       style="fill:none;stroke:#000000;stroke-width:2.00000024;stroke-linecap:butt;stroke-linejoin:miter;stroke-miterlimit:4;stroke-dasharray:none;stroke-opacity:1"
       d="m 245.75,953.64809 c 5.80837,-9.76493 9.5,-8.92319 9.5,-8.92319 l 10,0 10,0 c 0,0 4.19162,-0.14972 10,-9.91465"
       id="path3897"
       inkscape:connector-curvature="0"
       sodipodi:nodetypes="ccccc" />
    <path
       style="fill:none;stroke:#000000;stroke-width:2.00000024;stroke-linecap:butt;stroke-linejoin:miter;stroke-miterlimit:4;stroke-dasharray:none;stroke-opacity:1"
       d="m 305.25,944.7249 -10,0 c 0,0 -4.19163,-0.14972 -10,-9.91465"
       id="path3912"
       inkscape:connector-curvature="0"
       sodipodi:nodetypes="ccc" />
    <path
       sodipodi:nodetypes="ccc"
       inkscape:connector-curvature="0"
       id="path3914"
       d="m 305.25,924.8956 -10,0 c 0,0 -4.19163,0.14972 -10,9.91465"
       style="fill:none;stroke:#000000;stroke-width:2.00000024;stroke-linecap:butt;stroke-linejoin:miter;stroke-miterlimit:4;stroke-dasharray:none;stroke-opacity:1" />
    <path
       sodipodi:nodetypes="ccc"
       inkscape:connector-curvature="0"
       id="path3922"
       d="m 305.25,984.38352 -10,0 c 0,0 -4.19163,-0.14973 -10,-9.91465"
       style="fill:none;stroke:#999999;stroke-width:1.00000012px;stroke-linecap:butt;stroke-linejoin:miter;stroke-opacity:1" />
    <path
       style="fill:none;stroke:#999999;stroke-width:1.00000012px;stroke-linecap:butt;stroke-linejoin:miter;stroke-opacity:1"
       d="m 305.25,964.55421 -10,0 c 0,0 -4.19163,0.14973 -10,9.91466"
       id="path3924"
       inkscape:connector-curvature="0"
       sodipodi:nodetypes="ccc" />
    <g
       transform="matrix(0.9993017,0,0,0.99077306,-71.143509,72.006097)"
       id="g3959">
      <path
         sodipodi:nodetypes="cccc"
         inkscape:connector-curvature="0"
         id="path3961"
         d="m 152.5,865.86218 10,0 -5,-10 z"
         style="fill:#ffffff;fill-opacity:1;stroke:#000000;stroke-width:1.00499654px;stroke-linecap:butt;stroke-linejoin:miter;stroke-opacity:1" />
    </g>
    <g
       transform="matrix(0.9993017,0,0,0.99077306,48.856491,91.835397)"
       id="g3963">
      <path
         sodipodi:nodetypes="cccc"
         inkscape:connector-curvature="0"
         id="path3965"
         d="m 152.5,865.86218 10,0 -5,-10 z"
         style="fill:#ffffff;fill-opacity:1;stroke:#000000;stroke-width:1.00499654px;stroke-linecap:butt;stroke-linejoin:miter;stroke-opacity:1" />
    </g>
    <g
       id="g3967"
       transform="matrix(0.9993017,0,0,0.99077306,48.856491,72.006097)">
      <path
         style="fill:#ffffff;fill-opacity:1;stroke:#000000;stroke-width:1.00499654px;stroke-linecap:butt;stroke-linejoin:miter;stroke-opacity:1"
         d="m 152.5,865.86218 10,0 -5,-10 z"
         id="path3969"
         inkscape:connector-curvature="0"
         sodipodi:nodetypes="cccc" />
    </g>
    <path
       style="fill:none;stroke:#000000;stroke-width:2.00000024;stroke-linecap:butt;stroke-linejoin:miter;stroke-miterlimit:4;stroke-dasharray:none;stroke-opacity:1;marker-mid:url(#Arrow2Mend)"
       d="m 0,924.8956 17.625,0 17.625,0"
       id="path3971"
       inkscape:connector-curvature="0"
       sodipodi:nodetypes="ccc" />
    <path
       style="fill:none;stroke:#999999;stroke-width:1.00000012px;stroke-linecap:butt;stroke-linejoin:miter;stroke-opacity:1;marker-mid:url(#Arrow2Lend)"
       d="m 0,984.38352 16.25,0 129,0"
       id="path3973"
       inkscape:connector-curvature="0"
       sodipodi:nodetypes="ccc" />
    <path
       transform="matrix(0,1,1,0,0,0)"
       sodipodi:type="arc"
       style="fill:#000000;fill-opacity:1;stroke:none"
       id="path4309"
       sodipodi:cx="924.41687"
       sodipodi:cy="305"
       sodipodi:rx="4.9573269"
       sodipodi:ry="7.9999995"
       d="m 929.3742,305 a 4.9573269,7.9999995 0 0 1 -2.47867,6.9282 4.9573269,7.9999995 0 0 1 -4.95732,0 A 4.9573269,7.9999995 0 0 1 919.45954,305"
       sodipodi:start="0"
       sodipodi:end="3.1415927"
       sodipodi:open="true" />
    <path
       sodipodi:open="true"
       sodipodi:end="3.1415927"
       sodipodi:start="0"
       d="m 949.20354,305 a 4.9573269,7.9999995 0 0 1 -2.47866,6.9282 4.9573269,7.9999995 0 0 1 -4.95733,0 A 4.9573269,7.9999995 0 0 1 939.28889,305"
       sodipodi:ry="7.9999995"
       sodipodi:rx="4.9573269"
       sodipodi:cy="305"
       sodipodi:cx="944.24622"
       id="path6009"
       style="fill:#000000;fill-opacity:1;stroke:none"
       sodipodi:type="arc"
       transform="matrix(0,1,1,0,0,0)" />
    <path
       transform="matrix(0,1,1,0,0,0)"
       sodipodi:type="arc"
       style="fill:#999999;fill-opacity:1;stroke:none"
       id="path6011"
       sodipodi:cx="964.0755"
       sodipodi:cy="305"
       sodipodi:rx="4.9573269"
       sodipodi:ry="7.9999995"
       d="m 969.03283,305 a 4.9573269,7.9999995 0 0 1 -2.47867,6.9282 4.9573269,7.9999995 0 0 1 -4.95732,0 A 4.9573269,7.9999995 0 0 1 959.11817,305"
       sodipodi:start="0"
       sodipodi:end="3.1415927"
       sodipodi:open="true" />
    <path
       sodipodi:open="true"
       sodipodi:end="3.1415927"
       sodipodi:start="0"
       d="m 988.86217,305 a 4.9573269,7.9999995 0 0 1 -2.47866,6.9282 4.9573269,7.9999995 0 0 1 -4.95733,0 A 4.9573269,7.9999995 0 0 1 978.94752,305"
       sodipodi:ry="7.9999995"
       sodipodi:rx="4.9573269"
       sodipodi:cy="305"
       sodipodi:cx="983.90485"
       id="path6013"
       style="fill:#999999;fill-opacity:1;stroke:none"
       sodipodi:type="arc"
       transform="matrix(0,1,1,0,0,0)" />
  </g>
</svg>
