<?xml version="1.0" encoding="UTF-8" standalone="no"?>
<!-- Created with Inkscape (http://www.inkscape.org/) -->

<svg
   xmlns:dc="http://purl.org/dc/elements/1.1/"
   xmlns:cc="http://creativecommons.org/ns#"
   xmlns:rdf="http://www.w3.org/1999/02/22-rdf-syntax-ns#"
   xmlns:svg="http://www.w3.org/2000/svg"
   xmlns="http://www.w3.org/2000/svg"
   xmlns:xlink="http://www.w3.org/1999/xlink"
   xmlns:sodipodi="http://sodipodi.sourceforge.net/DTD/sodipodi-0.dtd"
   xmlns:inkscape="http://www.inkscape.org/namespaces/inkscape"
   width="601"
   height="327.66907"
   id="svg3081"
   version="1.1"
   inkscape:version="0.48.5 r10040"
   sodipodi:docname="reck_general.svg">
  <defs
     id="defs3083">
    <linearGradient
       id="linearGradient4438">
      <stop
         id="stop4440"
         offset="0"
         style="stop-color:#b2b2b2;stop-opacity:0;" />
      <stop
         id="stop4442"
         offset="1"
         style="stop-color:#000000;stop-opacity:1;" />
    </linearGradient>
    <linearGradient
       id="linearGradient4422">
      <stop
         style="stop-color:#000000;stop-opacity:1;"
         offset="0"
         id="stop4424" />
      <stop
         style="stop-color:#b2b2b2;stop-opacity:0;"
         offset="1"
         id="stop4426" />
    </linearGradient>
    <marker
       style="overflow:visible"
       id="Arrow2Lend-1"
       refX="0"
       refY="0"
       orient="auto"
       inkscape:stockid="Arrow2Lend">
      <path
         inkscape:connector-curvature="0"
         transform="matrix(-1.1,0,0,-1.1,-1.1,0)"
         d="M 8.7185878,4.0337352 -2.2072895,0.01601326 8.7185884,-4.0017078 c -1.7454984,2.3720609 -1.7354408,5.6174519 -6e-7,8.035443 z"
         style="fill-rule:evenodd;stroke-width:0.625;stroke-linejoin:round"
         id="path3862-5" />
    </marker>
    <marker
       style="overflow:visible"
       id="Arrow2Lend"
       refX="0"
       refY="0"
       orient="auto"
       inkscape:stockid="Arrow2Lend">
      <path
         inkscape:connector-curvature="0"
         transform="matrix(-1.1,0,0,-1.1,-1.1,0)"
         d="M 8.7185878,4.0337352 -2.2072895,0.01601326 8.7185884,-4.0017078 c -1.7454984,2.3720609 -1.7354408,5.6174519 -6e-7,8.035443 z"
         style="fill-rule:evenodd;stroke-width:0.625;stroke-linejoin:round"
         id="path3862" />
    </marker>
    <linearGradient
       inkscape:collect="always"
       xlink:href="#linearGradient4422"
       id="linearGradient4428"
       x1="280"
       y1="951.86218"
       x2="361"
       y2="951.86218"
       gradientUnits="userSpaceOnUse" />
    <linearGradient
       inkscape:collect="always"
       xlink:href="#linearGradient4438"
       id="linearGradient4436"
       x1="280"
       y1="951.86218"
       x2="361"
       y2="951.86218"
       gradientUnits="userSpaceOnUse" />
  </defs>
  <sodipodi:namedview
     id="base"
     pagecolor="#ffffff"
     bordercolor="#666666"
     borderopacity="1.0"
     inkscape:pageopacity="0.0"
     inkscape:pageshadow="2"
     inkscape:zoom="0.70710678"
     inkscape:cx="543.66663"
     inkscape:cy="194.23796"
     inkscape:document-units="px"
     inkscape:current-layer="layer1"
     showgrid="false"
     inkscape:window-width="1440"
     inkscape:window-height="851"
     inkscape:window-x="0"
     inkscape:window-y="0"
     inkscape:window-maximized="1"
     fit-margin-top="5"
     fit-margin-left="5"
     fit-margin-right="5"
     fit-margin-bottom="5" />
  <metadata
     id="metadata3086">
    <rdf:RDF>
      <cc:Work
         rdf:about="">
        <dc:format>image/svg+xml</dc:format>
        <dc:type
           rdf:resource="http://purl.org/dc/dcmitype/StillImage" />
        <dc:title />
      </cc:Work>
    </rdf:RDF>
  </metadata>
  <g
     inkscape:label="Layer 1"
     inkscape:groupmode="layer"
     id="layer1"
     transform="translate(-15,-694.69314)">
    <g
       transform="translate(10.5,145.49998)"
       id="g3029">
      <path
         style="fill:none;stroke:#000000;stroke-width:1px;stroke-linecap:butt;stroke-linejoin:miter;stroke-opacity:1"
         d="m 10,826.3622 40,0 c 0,0 8.383245,0.30203 20,20 11.361788,19.26564 20,20 20,20 l 20,0"
         id="path3031"
         inkscape:connector-curvature="0"
         sodipodi:nodetypes="ccscc" />
      <path
         sodipodi:nodetypes="ccscc"
         inkscape:connector-curvature="0"
         id="path3033"
         d="m 10,866.3622 40,0 c 0,0 8.383245,-0.30203 20.000001,-20 11.36179,-19.26564 20,-20 20,-20 l 19.999999,0"
         style="fill:none;stroke:#000000;stroke-width:1px;stroke-linecap:butt;stroke-linejoin:miter;stroke-opacity:1" />
      <path
         style="fill:none;stroke:#000000;stroke-width:1px;stroke-linecap:butt;stroke-linejoin:miter;stroke-opacity:1"
         d="m 55,844.8622 30,0"
         id="path3035"
         inkscape:connector-curvature="0"
         sodipodi:nodetypes="cc" />
      <path
         style="fill:none;stroke:#000000;stroke-width:1;stroke-linecap:butt;stroke-linejoin:miter;stroke-miterlimit:4;stroke-opacity:1;stroke-dasharray:3, 3;stroke-dashoffset:1.8"
         d="m 55,847.8622 30,0"
         id="path3037"
         inkscape:connector-curvature="0"
         sodipodi:nodetypes="cc" />
      <g
         id="g3039"
         inkscape:label="p1"
         transform="matrix(1.25,0,0,-1.25,370.73372,963.16017)">
        <g
           id="g3041"
           transform="matrix(0.1,0,0,0.1,-43.234529,1.8182746)">
          <g
             id="g3043"
             transform="scale(10,10)" />
        </g>
      </g>
    </g>
    <path
       sodipodi:nodetypes="cccc"
       inkscape:connector-curvature="0"
       id="path3045"
       d="m 105.5,976.86218 10,0 -5,-10 z"
       style="fill:#ffffff;fill-opacity:1;stroke:#000000;stroke-width:0.99999994px;stroke-linecap:butt;stroke-linejoin:miter;stroke-opacity:1" />
    <path
       sodipodi:nodetypes="ccscc"
       inkscape:connector-curvature="0"
       id="path3247"
       d="m 120.5,971.86218 20,0 c 0,0 8.38324,-0.30203 20,-20 11.36179,-19.26564 20,-20 20,-20 l 20,0"
       style="fill:none;stroke:#000000;stroke-width:1;stroke-linecap:butt;stroke-linejoin:miter;stroke-miterlimit:4;stroke-opacity:1;stroke-dasharray:4, 4;stroke-dashoffset:0" />
    <g
       id="g3253"
       inkscape:label="p1"
       transform="matrix(1.25,0,0,-1.25,461.23372,1068.6602)">
      <g
         id="g3255"
         transform="matrix(0.1,0,0,0.1,-43.234529,1.8182746)">
        <g
           id="g3257"
           transform="scale(10,10)" />
      </g>
    </g>
    <g
       id="g3261"
       transform="translate(-33.07143,142)">
      <g
         id="g3263"
         transform="translate(203.57143,-76.500016)">
        <path
           sodipodi:nodetypes="ccscc"
           inkscape:connector-curvature="0"
           id="path3265"
           d="m -150,826.3622 200,0 c 0,0 8.383245,0.30203 20,20 11.361788,19.26564 20,20 20,20 l 20,0"
           style="fill:none;stroke:#000000;stroke-width:1px;stroke-linecap:butt;stroke-linejoin:miter;stroke-opacity:1" />
        <path
           style="fill:none;stroke:#000000;stroke-width:1px;stroke-linecap:butt;stroke-linejoin:miter;stroke-opacity:1"
           d="m 30,866.3622 20,0 c 0,0 8.383245,-0.30203 20.000001,-20 11.36179,-19.26564 20,-20 20,-20 l 19.999999,0"
           id="path3267"
           inkscape:connector-curvature="0"
           sodipodi:nodetypes="ccscc" />
        <path
           sodipodi:nodetypes="cc"
           inkscape:connector-curvature="0"
           id="path3269"
           d="m 55,844.8622 30,0"
           style="fill:none;stroke:#000000;stroke-width:1px;stroke-linecap:butt;stroke-linejoin:miter;stroke-opacity:1" />
        <path
           sodipodi:nodetypes="cc"
           inkscape:connector-curvature="0"
           id="path3271"
           d="m 55,847.8622 30,0"
           style="fill:none;stroke:#000000;stroke-width:1;stroke-linecap:butt;stroke-linejoin:miter;stroke-miterlimit:4;stroke-opacity:1;stroke-dasharray:3, 3;stroke-dashoffset:1.8" />
        <g
           transform="matrix(1.25,0,0,-1.25,370.73372,963.16017)"
           inkscape:label="p1"
           id="g3273">
          <g
             transform="matrix(0.1,0,0,0.1,-43.234529,1.8182746)"
             id="g3275">
            <g
               transform="scale(10,10)"
               id="g3277" />
          </g>
        </g>
      </g>
      <path
         style="fill:#ffffff;fill-opacity:1;stroke:#000000;stroke-width:0.99999994px;stroke-linecap:butt;stroke-linejoin:miter;stroke-opacity:1"
         d="m 298.57143,754.86218 10,0 -5,-10 z"
         id="path3279"
         inkscape:connector-curvature="0"
         sodipodi:nodetypes="cccc" />
    </g>
    <g
       transform="translate(46.92857,102)"
       id="g3281">
      <g
         transform="translate(203.57143,-76.500016)"
         id="g3283">
        <path
           style="fill:none;stroke:#000000;stroke-width:1px;stroke-linecap:butt;stroke-linejoin:miter;stroke-opacity:1"
           d="m -230,826.3622 280,0 c 0,0 8.383245,0.30203 20,20 11.361788,19.26564 20,20 20,20 l 20,0"
           id="path3285"
           inkscape:connector-curvature="0"
           sodipodi:nodetypes="ccscc" />
        <path
           sodipodi:nodetypes="ccscc"
           inkscape:connector-curvature="0"
           id="path3287"
           d="m 30,866.3622 20,0 c 0,0 8.383245,-0.30203 20.000001,-20 11.36179,-19.26564 20,-20 20,-20 l 269.999999,0"
           style="fill:none;stroke:#000000;stroke-width:1px;stroke-linecap:butt;stroke-linejoin:miter;stroke-opacity:1" />
        <path
           style="fill:none;stroke:#000000;stroke-width:1px;stroke-linecap:butt;stroke-linejoin:miter;stroke-opacity:1"
           d="m 55,844.8622 30,0"
           id="path3289"
           inkscape:connector-curvature="0"
           sodipodi:nodetypes="cc" />
        <path
           style="fill:none;stroke:#000000;stroke-width:1;stroke-linecap:butt;stroke-linejoin:miter;stroke-miterlimit:4;stroke-opacity:1;stroke-dasharray:3, 3;stroke-dashoffset:1.8"
           d="m 55,847.8622 30,0"
           id="path3291"
           inkscape:connector-curvature="0"
           sodipodi:nodetypes="cc" />
        <g
           id="g3293"
           inkscape:label="p1"
           transform="matrix(1.25,0,0,-1.25,370.73372,963.16017)">
          <g
             id="g3295"
             transform="matrix(0.1,0,0,0.1,-43.234529,1.8182746)">
            <g
               id="g3297"
               transform="scale(10,10)" />
          </g>
        </g>
      </g>
      <path
         sodipodi:nodetypes="cccc"
         inkscape:connector-curvature="0"
         id="path3299"
         d="m 298.57143,754.86218 10,0 -5,-10 z"
         style="fill:#ffffff;fill-opacity:1;stroke:#000000;stroke-width:0.99999994px;stroke-linecap:butt;stroke-linejoin:miter;stroke-opacity:1" />
    </g>
    <g
       id="g4097"
       transform="translate(126.92857,142)">
      <g
         id="g4099"
         transform="translate(203.57143,-76.500016)">
        <path
           sodipodi:nodetypes="ccscc"
           inkscape:connector-curvature="0"
           id="path4101"
           d="m 30,826.3622 20,0 c 0,0 8.383245,0.30203 20,20 11.361788,19.26564 20,20 20,20 l 20,0"
           style="fill:none;stroke:#000000;stroke-width:1px;stroke-linecap:butt;stroke-linejoin:miter;stroke-opacity:1" />
        <path
           style="fill:none;stroke:#000000;stroke-width:1px;stroke-linecap:butt;stroke-linejoin:miter;stroke-opacity:1"
           d="m 30,866.3622 20,0 c 0,0 8.383245,-0.30203 20.000001,-20 11.36179,-19.26564 20,-20 20,-20 l 189.499999,0"
           id="path4103"
           inkscape:connector-curvature="0"
           sodipodi:nodetypes="ccscc" />
        <path
           sodipodi:nodetypes="cc"
           inkscape:connector-curvature="0"
           id="path4105"
           d="m 55,844.8622 30,0"
           style="fill:none;stroke:#000000;stroke-width:1px;stroke-linecap:butt;stroke-linejoin:miter;stroke-opacity:1" />
        <path
           sodipodi:nodetypes="cc"
           inkscape:connector-curvature="0"
           id="path4107"
           d="m 55,847.8622 30,0"
           style="fill:none;stroke:#000000;stroke-width:1;stroke-linecap:butt;stroke-linejoin:miter;stroke-miterlimit:4;stroke-opacity:1;stroke-dasharray:3, 3;stroke-dashoffset:1.8" />
        <g
           transform="matrix(1.25,0,0,-1.25,370.73372,963.16017)"
           inkscape:label="p1"
           id="g4109">
          <g
             transform="matrix(0.1,0,0,0.1,-43.234529,1.8182746)"
             id="g4111">
            <g
               transform="scale(10,10)"
               id="g4113" />
          </g>
        </g>
      </g>
      <path
         style="fill:#ffffff;fill-opacity:1;stroke:#000000;stroke-width:0.99999994px;stroke-linecap:butt;stroke-linejoin:miter;stroke-opacity:1"
         d="m 298.57143,754.86218 10,0 -5,-10 z"
         id="path4115"
         inkscape:connector-curvature="0"
         sodipodi:nodetypes="cccc" />
    </g>
    <g
       id="g4129"
       inkscape:label="p1"
       transform="matrix(1.25,0,0,-1.25,621.23372,1068.6602)">
      <g
         id="g4131"
         transform="matrix(0.1,0,0,0.1,-43.234529,1.8182746)">
        <g
           id="g4133"
           transform="scale(10,10)" />
      </g>
    </g>
    <g
       id="g4153">
      <path
         sodipodi:nodetypes="ccscc"
         inkscape:connector-curvature="0"
         id="path4121"
         d="m 280.5,931.86218 20,0 c 0,0 8.38324,0.30203 20,20 11.36179,19.26564 20,20 20,20 l 20,0"
         style="fill:none;stroke:url(#linearGradient4428);stroke-width:1px;stroke-linecap:butt;stroke-linejoin:miter;stroke-opacity:1" />
      <path
         style="fill:none;stroke:url(#linearGradient4436);stroke-width:1px;stroke-linecap:butt;stroke-linejoin:miter;stroke-opacity:1"
         d="m 280.5,971.86218 20,0 c 0,0 8.38324,-0.30203 20,-20 11.36179,-19.26564 20,-20 20,-20 l 20,0"
         id="path4123"
         inkscape:connector-curvature="0"
         sodipodi:nodetypes="ccscc" />
      <path
         sodipodi:nodetypes="cc"
         inkscape:connector-curvature="0"
         id="path4125"
         d="m 305.5,950.36218 30,0"
         style="fill:none;stroke:#b2b2b2;stroke-width:1px;stroke-linecap:butt;stroke-linejoin:miter;stroke-opacity:1" />
      <path
         sodipodi:nodetypes="cc"
         inkscape:connector-curvature="0"
         id="path4127"
         d="m 305.5,953.36218 30,0"
         style="fill:none;stroke:#b2b2b2;stroke-width:1;stroke-linecap:butt;stroke-linejoin:miter;stroke-miterlimit:4;stroke-opacity:1;stroke-dasharray:3, 3;stroke-dashoffset:1.8" />
      <path
         sodipodi:nodetypes="cccc"
         inkscape:connector-curvature="0"
         id="path4135"
         d="m 345.5,936.86218 10,0 -5,-10 z"
         style="fill:#ffffff;fill-opacity:1;stroke:#b2b2b2;stroke-width:0.99999994px;stroke-linecap:butt;stroke-linejoin:miter;stroke-opacity:1" />
    </g>
    <path
       style="fill:none;stroke:#000000;stroke-width:1;stroke-linecap:butt;stroke-linejoin:miter;stroke-miterlimit:4;stroke-opacity:1;stroke-dasharray:4, 4;stroke-dashoffset:0"
       d="m 440.5,931.86218 20,0 c 0,0 8.38324,0.30203 20,20 11.36179,19.26564 20,20 20,20 l 20,0"
       id="path4164"
       inkscape:connector-curvature="0"
       sodipodi:nodetypes="ccscc" />
    <g
       id="g4172"
       inkscape:label="p1"
       transform="matrix(1.25,0,0,-1.25,781.23372,1068.6602)">
      <g
         id="g4174"
         transform="matrix(0.1,0,0,0.1,-43.234529,1.8182746)">
        <g
           id="g4176"
           transform="scale(10,10)" />
      </g>
    </g>
    <g
       id="g4180"
       transform="translate(286.92857,222)">
      <g
         id="g4182"
         transform="translate(203.57143,-76.500016)">
        <path
           sodipodi:nodetypes="ccscc"
           inkscape:connector-curvature="0"
           id="path4184"
           d="m 30,826.3622 20,0 c 0,0 8.383245,0.30203 20,20 11.361788,19.26564 20,20 20,20 l 30,0"
           style="fill:none;stroke:#000000;stroke-width:1px;stroke-linecap:butt;stroke-linejoin:miter;stroke-opacity:1" />
        <path
           style="fill:none;stroke:#000000;stroke-width:1px;stroke-linecap:butt;stroke-linejoin:miter;stroke-opacity:1"
           d="m 30,866.3622 20,0 c 0,0 8.383245,-0.30203 20.000001,-20 11.36179,-19.26564 20,-20 20,-20 l 29.999999,0"
           id="path4186"
           inkscape:connector-curvature="0"
           sodipodi:nodetypes="ccscc" />
        <path
           sodipodi:nodetypes="cc"
           inkscape:connector-curvature="0"
           id="path4188"
           d="m 55,844.8622 30,0"
           style="fill:none;stroke:#000000;stroke-width:1px;stroke-linecap:butt;stroke-linejoin:miter;stroke-opacity:1" />
        <path
           sodipodi:nodetypes="cc"
           inkscape:connector-curvature="0"
           id="path4190"
           d="m 55,847.8622 30,0"
           style="fill:none;stroke:#000000;stroke-width:1;stroke-linecap:butt;stroke-linejoin:miter;stroke-miterlimit:4;stroke-opacity:1;stroke-dasharray:3, 3;stroke-dashoffset:1.8" />
        <g
           transform="matrix(1.25,0,0,-1.25,370.73372,963.16017)"
           inkscape:label="p1"
           id="g4192">
          <g
             transform="matrix(0.1,0,0,0.1,-43.234529,1.8182746)"
             id="g4194">
            <g
               transform="scale(10,10)"
               id="g4196" />
          </g>
        </g>
      </g>
      <path
         style="fill:#ffffff;fill-opacity:1;stroke:#000000;stroke-width:0.99999994px;stroke-linecap:butt;stroke-linejoin:miter;stroke-opacity:1"
         d="m 298.57143,754.86218 10,0 -5,-10 z"
         id="path4198"
         inkscape:connector-curvature="0"
         sodipodi:nodetypes="cccc" />
    </g>
    <path
       style="fill:none;stroke:#000000;stroke-width:1;stroke-linecap:butt;stroke-linejoin:miter;stroke-miterlimit:4;stroke-opacity:1;stroke-dasharray:4, 4;stroke-dashoffset:5;marker-start:none"
       d="m 120.5,1011.8622 20,0"
       id="path4234"
       inkscape:connector-curvature="0"
       sodipodi:nodetypes="cc" />
    <path
       sodipodi:nodetypes="cc"
       inkscape:connector-curvature="0"
       id="path4420"
       d="m 500.5,1011.8622 20,0"
       style="fill:none;stroke:#000000;stroke-width:1;stroke-linecap:butt;stroke-linejoin:miter;stroke-miterlimit:4;stroke-opacity:1;stroke-dasharray:4, 4;stroke-dashoffset:0;marker-start:none" />
    <path
       style="fill:#ffffff;fill-opacity:1;stroke:#000000;stroke-width:0.99999994px;stroke-linecap:butt;stroke-linejoin:miter;stroke-opacity:1"
       d="m 30.5,976.86218 10,0 -5,-10 z"
       id="path4641"
       inkscape:connector-curvature="0"
       sodipodi:nodetypes="cccc" />
    <path
       sodipodi:nodetypes="cccc"
       inkscape:connector-curvature="0"
       id="path4643"
       d="m 30.5,896.86218 10,0 -5,-10 z"
       style="fill:#ffffff;fill-opacity:1;stroke:#000000;stroke-width:0.99999994px;stroke-linecap:butt;stroke-linejoin:miter;stroke-opacity:1" />
    <path
       sodipodi:nodetypes="cccc"
       inkscape:connector-curvature="0"
       id="path4645"
       d="m 30.5,1016.8622 10,0 -5,-10 z"
       style="fill:#ffffff;fill-opacity:1;stroke:#000000;stroke-width:0.99999994px;stroke-linecap:butt;stroke-linejoin:miter;stroke-opacity:1" />
    <g
       transform="matrix(1.25,0,0,-1.25,532.87658,910.23158)"
       inkscape:label="p1"
       id="g4657">
      <g
         transform="matrix(0.1,0,0,0.1,-43.234529,1.8182746)"
         id="g4659">
        <g
           transform="scale(10,10)"
           id="g4661" />
      </g>
    </g>
    <g
       transform="matrix(1.25,0,0,-1.25,539.30515,838.08873)"
       inkscape:label="p1"
       id="g4684">
      <g
         transform="matrix(0.1,0,0,0.1,-43.234529,1.8182746)"
         id="g4686">
        <g
           transform="scale(10,10)"
           id="g4688" />
      </g>
    </g>
    <g
       id="g4707"
       transform="translate(134.99999,40.000003)">
      <path
         style="fill:none;stroke:#000000;stroke-width:1px;stroke-linecap:butt;stroke-linejoin:miter;stroke-opacity:1"
         d="m 400.5,711.86218 -32.5,0 c 0,0 -5.23952,0.13591 -12.5,9 -7.10112,8.66954 -12.5,9 -12.5,9 -5,0 -10,0 -15,0 0,0 -5.39888,-0.33046 -12.5,-9 -7.26048,-8.86409 -12.5,-9 -12.5,-9 l -12.5,0 -12.5,0 c 0,0 -5.23952,0.13591 -12.5,9 -7.10112,8.66954 -12.5,9 -12.5,9 -5,0 -10,0 -15,0 0,0 -5.39888,-0.33046 -12.5,-9 -7.26048,-8.86409 -12.5,-9 -12.5,-9 l -12.5,0"
         id="path4701"
         inkscape:connector-curvature="0"
         sodipodi:nodetypes="ccsccscccsccscc" />
      <path
         sodipodi:nodetypes="ccsccscccsccscc"
         inkscape:connector-curvature="0"
         id="path4703"
         d="m 400.5,751.86218 -32.5,0 c 0,0 -5.23953,-0.13591 -12.5,-9 -7.10112,-8.66954 -12.5,-9 -12.5,-9 -5,0 -10,0 -15,0 0,0 -5.39888,0.33046 -12.5,9 -7.26047,8.86409 -12.5,9 -12.5,9 l -12.5,0 -12.5,0 c 0,0 -5.23953,-0.13591 -12.5,-9 -7.10112,-8.66954 -12.5,-9 -12.5,-9 -5,0 -10,0 -15,0 0,0 -5.39888,0.33046 -12.5,9 -7.26047,8.86409 -12.5,9 -12.5,9 l -12.5,0"
         style="fill:none;stroke:#000000;stroke-width:0.99999988px;stroke-linecap:butt;stroke-linejoin:miter;stroke-opacity:1" />
      <path
         sodipodi:nodetypes="cccc"
         inkscape:connector-curvature="0"
         id="path4705"
         d="m 285.5,716.86218 10,0 -5,-10 z"
         style="fill:#ffffff;fill-opacity:1;stroke:#000000;stroke-width:0.99999994px;stroke-linecap:butt;stroke-linejoin:miter;stroke-opacity:1" />
      <path
         style="fill:#ffffff;fill-opacity:1;stroke:#000000;stroke-width:0.99999994px;stroke-linecap:butt;stroke-linejoin:miter;stroke-opacity:1"
         d="m 377.42388,716.86218 10,0 -5,-10 z"
         id="path4714"
         inkscape:connector-curvature="0"
         sodipodi:nodetypes="cccc" />
    </g>
    <rect
       style="fill:none;stroke:#000000;stroke-width:1.99999988;stroke-miterlimit:4;stroke-opacity:1;stroke-dasharray:8.00000012, 8.00000012;stroke-dashoffset:0"
       id="rect4712"
       width="88"
       height="73"
       x="286"
       y="833.36218"
       ry="9.2857141" />
    <rect
       style="fill:none;stroke:#000000;stroke-width:2;stroke-miterlimit:4;stroke-opacity:1;stroke-dasharray:8, 8;stroke-dashoffset:0"
       id="rect4728"
       width="223"
       height="78"
       x="326"
       y="728.36218"
       ry="7.9667363" />
    <path
       style="fill:none;stroke:#000000;stroke-width:1px;stroke-linecap:butt;stroke-linejoin:miter;stroke-opacity:1"
       d="m 285.5,841.07647 42,-110.82143"
       id="path4734"
       inkscape:connector-curvature="0"
       sodipodi:nodetypes="cc" />
    <path
       style="fill:none;stroke:#000000;stroke-width:1px;stroke-linecap:butt;stroke-linejoin:miter;stroke-opacity:1"
       d="M 369.64286,905.21932 545.66941,805.16925"
       id="path4736"
       inkscape:connector-curvature="0"
       sodipodi:nodetypes="cc" />
    <g
       id="g4781">
      <g
         transform="translate(-9.5,-91.073661)"
         id="g4740">
        <path
           style="fill:none;stroke:#000000;stroke-width:1px;stroke-linecap:butt;stroke-linejoin:miter;stroke-opacity:1"
           d="m 30,826.3622 20,0 c 0,0 8.383245,0.30203 20,20 11.361788,19.26564 20,20 20,20 l 20,0"
           id="path4742"
           inkscape:connector-curvature="0"
           sodipodi:nodetypes="ccscc" />
        <path
           sodipodi:nodetypes="ccscc"
           inkscape:connector-curvature="0"
           id="path4744"
           d="m 30,866.3622 20,0 c 0,0 8.383245,-0.30203 20.000001,-20 11.36179,-19.26564 20,-20 20,-20 l 19.999999,0"
           style="fill:none;stroke:#000000;stroke-width:1px;stroke-linecap:butt;stroke-linejoin:miter;stroke-opacity:1" />
        <path
           style="fill:none;stroke:#000000;stroke-width:1px;stroke-linecap:butt;stroke-linejoin:miter;stroke-opacity:1"
           d="m 55,844.8622 30,0"
           id="path4746"
           inkscape:connector-curvature="0"
           sodipodi:nodetypes="cc" />
        <path
           style="fill:none;stroke:#000000;stroke-width:1;stroke-linecap:butt;stroke-linejoin:miter;stroke-miterlimit:4;stroke-opacity:1;stroke-dasharray:3, 3;stroke-dashoffset:1.8"
           d="m 55,847.8622 30,0"
           id="path4748"
           inkscape:connector-curvature="0"
           sodipodi:nodetypes="cc" />
        <g
           id="g4750"
           inkscape:label="p1"
           transform="matrix(1.25,0,0,-1.25,370.73372,963.16017)">
          <g
             id="g4752"
             transform="matrix(0.1,0,0,0.1,-43.234529,1.8182746)">
            <g
               id="g4754"
               transform="scale(10,10)" />
          </g>
        </g>
      </g>
    </g>
    <g
       id="g4791"
       transform="translate(-5,0)">
      <path
         sodipodi:nodetypes="ccsccscc"
         inkscape:connector-curvature="0"
         id="path4760"
         d="m 105.5,788.63174 -7.5,0 c 0,0 -5.23952,0.13591 -12.5,9 -7.10112,8.66954 -12.5,9 -12.5,9 -5,0 -10,0 -15,0 0,0 -5.39888,-0.33046 -12.5,-9 -7.26048,-8.86409 -12.5,-9 -12.5,-9 l -7.5,0"
         style="fill:none;stroke:#000000;stroke-width:1px;stroke-linecap:butt;stroke-linejoin:miter;stroke-opacity:1" />
      <path
         style="fill:none;stroke:#000000;stroke-width:0.99999988px;stroke-linecap:butt;stroke-linejoin:miter;stroke-opacity:1"
         d="m 105.5,828.63174 -7.5,0 c 0,0 -5.23953,-0.13591 -12.5,-9 -7.10112,-8.66954 -12.5,-9 -12.5,-9 -5,0 -10,0 -15,0 0,0 -5.39888,0.33046 -12.5,9 -7.26047,8.86409 -12.5,9 -12.5,9 l -7.5,0"
         id="path4762"
         inkscape:connector-curvature="0"
         sodipodi:nodetypes="ccsccscc" />
    </g>
    <path
       style="fill:none;stroke:#000000;stroke-width:1px;stroke-linecap:butt;stroke-linejoin:miter;stroke-opacity:1"
       d="m 20.5,705.17275 79.98998,0"
       id="path4795"
       inkscape:connector-curvature="0" />
    <path
       style="fill:#ffffff;fill-opacity:1;stroke:#000000;stroke-width:0.99999994px;stroke-linecap:butt;stroke-linejoin:miter;stroke-opacity:1"
       d="m 55.494989,710.19314 9.999999,0 -4.999999,-10 z"
       id="path4766"
       inkscape:connector-curvature="0"
       sodipodi:nodetypes="cccc" />
  </g>
</svg>
