<?xml version="1.0" encoding="UTF-8" standalone="no"?>
<!-- Created with Inkscape (http://www.inkscape.org/) -->

<svg
   xmlns:dc="http://purl.org/dc/elements/1.1/"
   xmlns:cc="http://creativecommons.org/ns#"
   xmlns:rdf="http://www.w3.org/1999/02/22-rdf-syntax-ns#"
   xmlns:svg="http://www.w3.org/2000/svg"
   xmlns="http://www.w3.org/2000/svg"
   xmlns:sodipodi="http://sodipodi.sourceforge.net/DTD/sodipodi-0.dtd"
   xmlns:inkscape="http://www.inkscape.org/namespaces/inkscape"
   id="svg3004"
   version="1.1"
   inkscape:version="0.48.2 r9819"
   width="284.175"
   height="205.5"
   xml:space="preserve"
   sodipodi:docname="wavepacket.svg"><metadata
     id="metadata3010"><rdf:RDF><cc:Work
         rdf:about=""><dc:format>image/svg+xml</dc:format><dc:type
           rdf:resource="http://purl.org/dc/dcmitype/StillImage" /><dc:title></dc:title></cc:Work></rdf:RDF></metadata><defs
     id="defs3008" /><sodipodi:namedview
     pagecolor="#ffffff"
     bordercolor="#666666"
     borderopacity="1"
     objecttolerance="10"
     gridtolerance="10"
     guidetolerance="10"
     inkscape:pageopacity="0"
     inkscape:pageshadow="2"
     inkscape:window-width="1440"
     inkscape:window-height="852"
     id="namedview3006"
     showgrid="false"
     inkscape:zoom="2.7251999"
     inkscape:cx="290.60666"
     inkscape:cy="101.87496"
     inkscape:window-x="0"
     inkscape:window-y="0"
     inkscape:window-maximized="1"
     inkscape:current-layer="g3012" /><g
     id="g3012"
     inkscape:groupmode="layer"
     inkscape:label="wavepacket"
     transform="matrix(1.25,0,0,-1.25,0,205.5)"><path
       inkscape:connector-curvature="0"
       id="path3016"
       style="fill:none;stroke:#000000;stroke-width:3.20000000000000018;stroke-linecap:butt;stroke-linejoin:miter;stroke-miterlimit:10;stroke-opacity:1;stroke-dasharray:none"
       d="m 0.283594,82.1992 2.729686,0 0.91016,0.0102 3.65,0 0.91015,0.0101 2.72971,0 0.9101,-0.0101 0.9102,0 0.9098,-0.0102 0.9101,0 0.9098,-0.0199 0.9101,-0.0098 0.9102,-0.0203 0.9098,-0.0097 0.9199,-0.02 0.9101,-0.0203 0.9102,-0.0199 0.9098,-0.0199 0.9101,-0.0102 1.8199,0 0.9102,0.0203 0.9098,0.02 0.9101,0.0398 0.9098,0.0602 0.9101,0.0699 0.9102,0.0898 0.9098,0.1 0.9199,0.1102 0.9101,0.1199 0.9102,0.1199 0.9098,0.1102 0.9101,0.1 0.9098,0.0699 0.9101,0.0301 0.9102,-0.0102 0.9098,-0.0597 0.9101,-0.1301 0.9098,-0.2 0.9101,-0.2801 0.9102,-0.35 0.9199,-0.4199 0.9098,-0.4801 0.9101,-0.5199 0.9102,-0.55 0.9098,-0.5399 0.9101,-0.5101 0.9098,-0.4399 0.9101,-0.3203 0.9102,-0.1797 0.9098,0 0.9101,0.2297 0.9098,0.4703 0.9101,0.7399 0.9102,1.0101 0.9199,1.27 0.9098,1.5097 0.9101,1.7102 0.9102,1.8398 0.9098,1.9102 0.9101,1.8699 0.9098,1.7402 0.9101,1.4797 0.9102,1.1301 0.9098,0.65 0.9101,0.0801 0.9098,-0.5899 0.9101,-1.3 0.9102,-2.0601 0.9199,-2.8102 0.9098,-3.5 0.9101,-4.1097 0.9102,-4.5903 0.9098,-4.9 0.9101,-4.9898 0.9098,-4.85 0.9101,-4.4602 0.9102,-3.7898 0.9098,-2.8699 0.9101,-1.72 0.9098,-0.3601 0.9101,1.1398 0.9102,2.7403 0.9199,4.3597 0.9098,5.9 0.9101,7.3102 0.9102,8.4699 0.9098,9.3402 0.9101,9.82 0.9098,9.8895 0.9101,9.48 0.9102,8.6 0.9098,7.261 0.9101,5.479 0.9098,3.35 0.9101,0.91 0.92,-1.689 0.9101,-4.381 0.9098,-6.99 0.9101,-9.429 0.9102,-11.55 0.9098,-13.2208 0.9101,-14.3699 0.9095,-14.9098 0.91,-14.7902 0.911,-14 0.909,-12.5398 0.911,-10.47 0.909,-7.88005 0.91,-4.85 0.92,-1.560153 0.911,1.890233 0.909,5.3 0.91,8.52967 0.911,11.4203 0.909,13.82 0.911,15.6398 0.909,16.75 0.91,17.1402 0.911,16.7505 0.909,15.629 0.911,13.83 0.909,11.42 0.91,8.53 0.92,5.3 0.911,1.88 0.909,-1.55 0.91,-4.85 0.911,-7.88 0.909,-10.47 0.911,-12.539 0.909,-14 0.91,-14.7907 0.911,-14.9098 0.909,-14.3703 0.911,-13.2297 0.909,-11.5402 0.921,-9.4301 0.909,-6.9898 0.911,-4.3801 0.909,-1.7 0.91,0.9199 0.911,3.35 0.909,5.4801 0.911,7.2602 0.909,8.6 0.91,9.48 0.911,9.8899 0.909,9.8199 0.911,9.3402 0.909,8.47 0.921,7.3095 0.909,5.9 0.911,4.35 0.909,2.75 0.91,1.14 0.911,-0.36 0.909,-1.72 0.911,-2.87 0.909,-3.79 0.91,-4.46 0.911,-4.8495 0.909,-4.9903 0.911,-4.9 0.909,-4.5898 0.921,-4.1102 0.909,-3.5 0.911,-2.8097 0.909,-2.0602 0.91,-1.3 0.911,-0.5898 0.909,0.08 0.911,0.65 0.909,1.12 0.91,1.4898 0.911,1.7402 0.909,1.87 0.911,1.9097 0.909,1.8403 0.921,1.7097 0.909,1.5102 0.911,1.2699 0.909,1.0102 0.91,0.7398 0.911,0.4699 0.909,0.2301 0.911,0 0.909,-0.1801 0.91,-0.3297 0.911,-0.43 0.909,-0.5102 0.911,-0.55 0.919,-0.5398 0.911,-0.5301 0.909,-0.4699 0.911,-0.42 0.909,-0.35 0.91,-0.28 0.911,-0.2 0.909,-0.1301 0.911,-0.0699 0.909,-0.0102 0.91,0.0402 0.911,0.07 0.909,0.1 0.911,0.1097 0.919,0.1203 0.911,0.1098 0.909,0.1199 0.911,0.1 0.909,0.0903 0.91,0.0699 0.911,0.05 0.909,0.05 0.911,0.0199 0.909,0.0199 1.821,0 0.909,-0.0097 0.911,-0.02 0.919,-0.0203 0.911,-0.0199 0.909,-0.0199 0.911,-0.0199 0.909,-0.0102 0.91,-0.0199 0.911,-0.0102 0.909,-0.0097 0.911,0 0.909,-0.0102 4.56,0 0.911,0.0102 2.729,0 0.91,0.0097 2.731,0" /><path
       sodipodi:nodetypes="cccc"
       inkscape:connector-curvature="0"
       id="path3018"
       style="fill:#000000;fill-opacity:1;fill-rule:nonzero;stroke:none"
       d="M 220.44102,81.791665 211.59665,65.851081 246.42872,81.70997 211.59665,97.73225" /></g></svg>